<svg xmlns="http://www.w3.org/2000/svg" viewBox="-0.5 -0.5 24 24"
    id="Designer-Desk-2--Streamline-Free-Illustrations" height="24" width="24">
    <desc>Designer Desk 2 Streamline Illustration: https://streamlinehq.com</desc>
    <g>
        <g fill="#2196f3">
            <path
                d="m15.18 12.860449999999998 -0.006899999999999999 0zM5.5775 16.215c0.043699999999999996 0.006899999999999999 0.2829 0.0184 0.2829 -0.023 0 -0.024149999999999998 -0.043699999999999996 -0.023 -0.043699999999999996 -0.023 0.00575 -0.184 0.2392 -0.22999999999999998 0.4059499999999999 -0.1334a0.6393999999999999 0.6393999999999999 0 0 1 0.1265 0.09545c-0.23574999999999996 0.01265 -0.5485499999999999 0.17365 -0.5278499999999999 0.40709999999999996a0.41054999999999997 0.41054999999999997 0 0 0 0.21505 0.28635 0.6486 0.6486 0 0 0 0.48645 0.1219 0.67275 0.67275 0 0 0 0.3771999999999999 -0.2553 0.8739999999999999 0.8739999999999999 0 0 0 0.575 -0.19204999999999997 0.0644 0.0644 0 0 0 0.024149999999999998 -0.04485c0 -0.040249999999999994 0 -0.03795 -0.22999999999999998 -0.29324999999999996a0.06095 0.06095 0 0 0 -0.09889999999999999 0.0115 0.09774999999999999 0.09774999999999999 0 0 0 -0.010349999999999998 0.0161 0.16904999999999998 0.16904999999999998 0 0 1 -0.19665 0.08279999999999998c-0.11499999999999999 -0.03335 -0.26335 -0.33809999999999996 -0.5336 -0.5197999999999999 -0.23574999999999996 -0.15869999999999998 -0.5519999999999999 -0.20584999999999998 -0.7751 -0.017249999999999998a0.61525 0.61525 0 0 0 -0.19549999999999998 0.3151 0.1564 0.1564 0 0 0 0.006899999999999999 0.11499999999999999A0.1817 0.1817 0 0 0 5.5775 16.215zm0.43239999999999995 0.42665a0.1541 0.1541 0 0 1 -0.04255 -0.2047 0.43699999999999994 0.43699999999999994 0 0 1 0.20354999999999998 -0.1541 1.85035 1.85035 0 0 0 -0.16099999999999998 0.35305zm1.0833 -0.1817c0.027599999999999996 -0.08279999999999998 0 -0.054049999999999994 0.046 -0.07475a0.33235 0.33235 0 0 0 0.09315 -0.06899999999999999l0.10464999999999999 0.1242a0.8578999999999999 0.8578999999999999 0 0 1 -0.2829 0.11499999999999999c0.0115 -0.0299 0.0299 -0.0759 0.0391 -0.1012zm-0.4163 -0.29324999999999996c0.10924999999999999 0.13684999999999997 0.20009999999999997 0.25875 0.36684999999999995 0.24494999999999997a0.9073499999999999 0.9073499999999999 0 0 0 -0.057499999999999996 0.1541c-0.08395 0.00575 -0.09545 -0.013799999999999998 -0.1288 0 -0.06554999999999998 0.0253 -0.17365 0.26105 -0.43584999999999996 0.25989999999999996a0.38065 0.38065 0 0 0 0.03105 -0.11499999999999999 0.46805 0.46805 0 0 0 0.2024 -0.09545 0.13684999999999997 0.13684999999999997 0 0 0 0.046 -0.0851c0 -0.040249999999999994 -0.013799999999999998 -0.092 -0.09889999999999999 -0.15984999999999996a1.13505 1.13505 0 0 0 0.07475 -0.20929999999999999zm-0.38639999999999997 0.4346999999999999c-0.1012 -0.054049999999999994 0.07129999999999999 -0.1495 0.18284999999999998 -0.14604999999999999a0.1357 0.1357 0 0 1 0.1219 0.0782 0.2139 0.2139 0 0 1 -0.30474999999999997 0.0621zm0.1357 -0.7038a1.4673999999999998 1.4673999999999998 0 0 1 0.21159999999999998 0.22194999999999998A0.8946999999999999 0.8946999999999999 0 0 0 6.555 16.33a0.36684999999999995 0.36684999999999995 0 0 0 -0.2898 0.03795c-0.21045 0.11499999999999999 -0.16099999999999998 0.36684999999999995 0.13109999999999997 0.33809999999999996a0.42665 0.42665 0 0 0 -0.03795 0.10464999999999999 0.7198999999999999 0.7198999999999999 0 0 1 -0.31739999999999996 -0.15065 1.6215 1.6215 0 0 0 0.18859999999999996 -0.40824999999999995 0.36915 0.36915 0 0 1 0.28635 -0.0092l0.024149999999999998 -0.09085 -0.0253 -0.0115c-0.054049999999999994 -0.0368 -0.0782 -0.06554999999999998 -0.14029999999999998 -0.11499999999999999a0.54395 0.54395 0 0 0 0.05175 -0.1334zm-0.44619999999999993 -0.184a0.6785 0.6785 0 0 1 0.3979 0.13799999999999998 0.70495 0.70495 0 0 0 -0.046 0.14604999999999999 0.42205 0.42205 0 0 0 -0.39559999999999995 -0.06785 0.81765 0.81765 0 0 0 0.043699999999999996 -0.21619999999999998zm-0.26335 0.0897a0.42319999999999997 0.42319999999999997 0 0 1 0.22079999999999997 -0.08739999999999999 0.7452 0.7452 0 0 0 -0.06554999999999998 0.24494999999999997 0.22079999999999997 0.22079999999999997 0 0 0 -0.10695 0.20009999999999997 0.58995 0.58995 0 0 1 -0.2369 -0.035649999999999994 0.4876 0.4876 0 0 1 0.1863 -0.32199999999999995zm-1.7180999999999997 -0.19204999999999997c-0.207 -0.0897 -0.6669999999999999 0.17595 -0.75095 0.31855a0.1357 0.1357 0 0 0 0 0.09774999999999999c0.07245 0.27485 0.7486499999999999 1.24545 0.8739999999999999 1.3961 0.021849999999999998 0.027599999999999996 0.05175 -0.010349999999999998 0.0322 -0.04255 -0.0598 -0.09889999999999999 -0.052899999999999996 0.10004999999999999 0.253 -0.8901A0.2875 0.2875 0 0 0 4.484999999999999 16.445a0.0644 0.0644 0 0 0 0 -0.08625 0.2047 0.2047 0 0 0 -0.035649999999999994 -0.034499999999999996l0.07245 -0.26794999999999997 0.2875 0.15869999999999998a2.1918999999999995 2.1918999999999995 0 0 0 -0.1265 0.4508 1.17645 1.17645 0 0 0 -0.32199999999999995 0.17709999999999998c-0.06785 0.07475 0.0391 0.21275 0.10579999999999999 0.29555s0.12304999999999999 0.13915 0.1357 0.1518 0.052899999999999996 0 0.049449999999999994 -0.020699999999999996a0.18744999999999998 0.18744999999999998 0 0 0 -0.028749999999999998 -0.046 1.9297 1.9297 0 0 1 -0.15984999999999996 -0.3059 1.6099999999999999 1.6099999999999999 0 0 1 0.28175 -0.1334c0.035649999999999994 -0.01265 0.14604999999999999 -0.04714999999999999 0.17595 -0.028749999999999998a2.9370999999999996 2.9370999999999996 0 0 0 0.45999999999999996 0.19434999999999997 0.026748317704999997 0.026748317704999997 0 0 0 0.023 -0.048299999999999996l-0.19895 -0.12075a1.012 1.012 0 0 0 0.08049999999999999 -0.30244999999999994l0.49104999999999993 0.26565c0.0299 0.017249999999999998 0.052899999999999996 -0.0299 0.03105 -0.04255s-1.5122499999999999 -0.9602499999999999 -1.8089499999999998 -1.0902zm-0.17479999999999998 0.1219a0.2139 0.2139 0 0 1 0.12304999999999999 0c0.026449999999999998 0.0115 0.09085 0.046 0.17825 0.09429999999999998a1.1339 1.1339 0 0 0 -0.0598 0.25184999999999996c-0.07705 -0.043699999999999996 -0.12304999999999999 -0.07705 -0.184 -0.0667a0.22309999999999997 0.22309999999999997 0 0 0 -0.09085 0.043699999999999996c0.0115 -0.0897 0.021849999999999998 -0.15869999999999998 0.03335 -0.32315zm-0.45999999999999996 0.253a1.035 1.035 0 0 1 0.42205 -0.2438 6.192749999999999 6.192749999999999 0 0 0 -0.1288 0.8233999999999999 3.3499499999999998 3.3499499999999998 0 0 1 -0.29209999999999997 -0.58075zm0.5221 0.96715c-0.06325 -0.10464999999999999 -0.13224999999999998 -0.22079999999999997 -0.19779999999999998 -0.33465 0.0391 -0.16444999999999999 0.05175 -0.24034999999999995 0.0759 -0.39559999999999995a2.07 2.07 0 0 0 0.21734999999999996 0.3082 2.0309 2.0309 0 0 0 -0.09429999999999998 0.42205zm0.20124999999999998 0.33119999999999994c-0.04139999999999999 -0.06554999999999998 -0.09429999999999998 -0.1541 -0.16329999999999997 -0.26794999999999997a2.22755 2.22755 0 0 0 0.08625 -0.44275c0.0253 0.06095 0.2507 -0.026449999999999998 0.31165 -0.049449999999999994 -0.04485 0.14145 -0.20124999999999998 0.6336499999999999 -0.23344999999999996 0.76015zm-0.034499999999999996 -0.74635a3.2199999999999998 3.2199999999999998 0 0 1 -0.18859999999999996 -0.38294999999999996l0.035649999999999994 -0.01955c0.0161 0.0092 0.4094 0.2415 0.43815 0.25989999999999996a1.5732 1.5732 0 0 1 -0.28405 0.14259999999999998zm0.345 -0.253c-0.08625 -0.057499999999999996 -0.20354999999999998 -0.12765 -0.29324999999999996 -0.1794a1.01545 1.01545 0 0 0 0.0598 -0.253l0.32659999999999995 0.184c-0.00575 0.043699999999999996 -0.04485 0.1334 -0.08625 0.2484zm0.7613 0.45999999999999996 -0.17709999999999998 -0.10695a0.33349999999999996 0.33349999999999996 0 0 0 -0.24494999999999997 0 2.3506 2.3506 0 0 0 0.09659999999999999 -0.41284999999999994l0.4163 0.22999999999999998a1.035 1.035 0 0 0 -0.08395 0.29555z"
                stroke-width="1"></path>
            <path
                d="M22.35025 17.154549999999997c-0.1863 -1.7342 -1.7916999999999998 -4.40105 -2.7508 -5.858099999999999a14.693549999999998 14.693549999999998 0 0 0 1.6099999999999999 0.040249999999999994c0.15295 0 0.5531499999999999 -0.027599999999999996 0.6302 -0.04255 0.04485 -0.0092 0.05175 -0.05175 -0.0161 -0.054049999999999994s-0.55085 -0.0253 -0.6164 -0.026449999999999998l-1.1695499999999999 0c-0.1794 0.006899999999999999 -0.45999999999999996 0.023 -0.4760999999999999 0.023 -0.345 -0.52555 -0.5853499999999999 -0.8544499999999999 -0.58765 -0.8556a0.026449999999999998 0.026449999999999998 0 1 0 -0.0322 0.04139999999999999c0.052899999999999996 0.04255 2.37705 3.4384999999999994 3.0877499999999998 5.7776 0.28175 0.9280499999999999 0.44849999999999995 2.093 -0.45999999999999996 2.415 -2.1574 0.7705 -19.05435 1.0212 -20.651699999999998 0.11499999999999999 -0.22194999999999998 -0.12535 -0.27369999999999994 -0.38639999999999997 -0.22999999999999998 -0.7383 0.06785 -0.48874999999999996 0.33119999999999994 -1.15 0.6486 -1.8906 0.35764999999999997 0.345 3.3246499999999997 3.06935 3.8053500000000002 2.9669999999999996s3.18435 -1.35815 3.2958999999999996 -1.5984999999999998a1.4949999999999999 1.4949999999999999 0 0 0 0.1012 -0.52325 0.09545 0.09545 0 0 0 -0.0115 -0.12535c-0.17825 -0.17709999999999998 -3.7144999999999992 -2.9808 -3.9421999999999997 -2.97275 -0.15869999999999998 0.006899999999999999 -0.44619999999999993 0.1702 -0.58305 0.2507A0.4059499999999999 0.4059499999999999 0 0 0 3.5649999999999995 13.915a0.55775 0.55775 0 0 0 -0.32659999999999995 0.3611 0.027599999999999996 0.027599999999999996 0 0 0 0.054049999999999994 0 0.55545 0.55545 0 0 1 0.3082 -0.24609999999999999 0.2875 0.2875 0 0 1 0.28175 0.12304999999999999l-1.2787999999999997 0.5462499999999999a0.5658 0.5658 0 0 0 -0.24609999999999999 -0.14834999999999998c-0.21849999999999997 -0.057499999999999996 -0.36569999999999997 0.08625 -0.45309999999999995 0.29669999999999996a0.027599999999999996 0.027599999999999996 0 0 0 0.04714999999999999 0.026449999999999998c0.1472 -0.21275 0.31739999999999996 -0.28519999999999995 0.52095 -0.11499999999999999 -0.24609999999999999 0.10924999999999999 -0.58995 0.26449999999999996 -0.83145 0.38409999999999994 0.017249999999999998 -0.027599999999999996 2.49895 -4.5218 2.49895 -4.5333 0.10924999999999999 -0.2024 0.32889999999999997 -0.56465 0.55545 -0.6118a1.5042 1.5042 0 0 1 0.31165 -0.034499999999999996c-0.15984999999999996 0.26449999999999996 -1.45705 2.415 -1.45935 2.7186 0 0.345 0.0598 0.29094999999999993 0.2438 0.345s10.479949999999999 -0.0092 10.49835 -0.0092c0.17825 0 0.87515 -0.023 0.9395499999999999 -0.07014999999999999 0.20009999999999997 -0.1472 0.15525 -0.36684999999999995 0.06785 -0.598 -0.020699999999999996 -0.05519999999999999 -0.12535 -0.28405 -0.26565 -0.58995 0.60375 -0.1817 1.0579999999999998 0.049449999999999994 1.0994 1.035 0.04139999999999999 0.85215 -0.2944 1.11205 -0.9372499999999999 1.0752499999999998 -0.51635 -0.0299 -0.8728499999999999 -0.1817 -0.9855499999999999 0.01955 -0.1265 0.22424999999999998 0.22309999999999997 0.72795 0.37489999999999996 0.9372499999999999 -0.021849999999999998 0 -0.9843999999999999 -0.01955 -1.22705 -0.0299a10.05445 10.05445 0 0 0 -1.0257999999999998 0.01265 3.0888999999999998 3.0888999999999998 0 0 0 -0.6968999999999999 0.09545c-0.08625 0.04255 -0.19779999999999998 0.26449999999999996 -0.24494999999999997 0.35764999999999997 -0.09315 0.18284999999999998 -0.5175 1.33055 -0.6347999999999999 1.6617499999999998 -0.06899999999999999 0.1909 -0.30244999999999994 0.8233999999999999 -0.14604999999999999 0.9349500000000001 -0.00575 0.12304999999999999 0.013799999999999998 0.2875 0.1219 0.345s1.5938999999999999 0.09889999999999999 1.7077499999999999 0.1012c0.20124999999999998 0.00575 2.2356 0.0322 3.53395 -0.0253s1.8652999999999997 -0.1817 1.8319499999999997 -0.17825a0.18515 0.18515 0 0 0 0.12994999999999998 -0.1449 0.48185 0.48185 0 0 0 -0.0161 -0.2553c0.1449 -0.28175 -0.9510499999999998 -2.62085 -1.2546499999999998 -2.7852999999999994a0.12535 0.12535 0 0 0 -0.058649999999999994 -0.0161c-0.06095 0 -1.42485 -0.057499999999999996 -1.9549999999999998 -0.07475 -0.11499999999999999 -0.16215 -0.48874999999999996 -0.7727999999999999 -0.345 -0.9027499999999999 0.21849999999999997 -0.1909 2.0435499999999998 0.7658999999999999 1.9458 -1.1384999999999998 -0.0506 -0.86135 -0.44734999999999997 -1.3662 -1.25235 -1.0740999999999998 -0.07014999999999999 -0.1518 -0.65895 -1.4099 -0.8164999999999999 -1.7445499999999998a11.21365 11.21365 0 0 0 1.8307999999999998 -0.040249999999999994 0.7797 0.7797 0 0 0 0.29669999999999996 0.55085c0.45999999999999996 0.345 2.2908 0.29324999999999996 2.62315 -0.1288a1.0902 1.0902 0 0 0 0.18055 -0.8958499999999999 0.17365 0.17365 0 0 0 0.06785 -0.08164999999999999c0.0184 -0.035649999999999994 0 -0.08049999999999999 -0.07934999999999999 -0.09659999999999999a1.7376499999999997 1.7376499999999997 0 0 0 -0.30934999999999996 -0.0184c0 -0.09429999999999998 0.00575 -0.27025 0 -0.47034999999999993 0.010349999999999998 -0.006899999999999999 0.0851 -0.09659999999999999 0.09315 -0.10695a1.2189999999999999 1.2189999999999999 0 0 0 0.2139 -0.3611c0.03795 -0.10695 0.052899999999999996 -0.22999999999999998 -0.04714999999999999 -0.2898 -0.1541 -0.08395 -0.26219999999999993 0.07014999999999999 -0.31394999999999995 0.24264999999999998 -0.048299999999999996 -0.26565 -0.15984999999999996 -0.6555 -0.42665 -0.6164 -0.45309999999999995 0.06899999999999999 -0.14029999999999998 1.16725 0.006899999999999999 1.6019499999999998a1.3983999999999999 1.3983999999999999 0 0 0 -0.38985 0c0.14375 -0.3611 0.21734999999999996 -0.828 -0.1518 -0.8981499999999999a0.29324999999999996 0.29324999999999996 0 0 0 -0.3013 0.11499999999999999 0.15984999999999996 0.15984999999999996 0 0 0 -0.25989999999999996 -0.0759c-0.16904999999999998 0.1219 -0.07245 0.40135 0.1242 0.49334999999999996a2.0378 2.0378 0 0 0 0 0.35534999999999994 1.2994999999999999 1.2994999999999999 0 0 0 -0.368 0.00805 4.9346499999999995 4.9346499999999995 0 0 0 -0.092 -0.8360499999999998 0.6186999999999999 0.6186999999999999 0 0 0 0.2553 -0.4278c0.0161 -0.15295 -0.03795 -0.28059999999999996 -0.16559999999999997 -0.31394999999999995 -0.15984999999999996 -0.04139999999999999 -0.25415 0.07014999999999999 -0.28175 0.22999999999999998 -0.14145 -0.19549999999999998 -0.41859999999999997 -0.26565 -0.5531499999999999 -0.04139999999999999 -0.43124999999999997 -0.44849999999999995 -0.6393999999999999 -0.19779999999999998 -0.53015 0 0.08164999999999999 0.1518 0.2944 0.2369 0.45999999999999996 0.28405 0 0.2576 0.11499999999999999 0.47494999999999993 0.2576 0.6968999999999999 0.09545 0.1495 0.2024 0.29324999999999996 0.28519999999999995 0.39905a2.77955 2.77955 0 0 0 -0.53475 0.034499999999999996c-0.10809999999999999 0.028749999999999998 -0.12535 0.10695 -0.0253 0.16329999999999997a1.41105 1.41105 0 0 0 -0.034499999999999996 0.41169999999999995 12.08535 12.08535 0 0 0 -1.8526499999999997 0.043699999999999996c-0.0391 -0.08395 -0.15525 -0.32889999999999997 -0.16904999999999998 -0.35764999999999997s0.09659999999999999 -0.36224999999999996 0.25184999999999996 -3.4626499999999996c0.713 -0.0598 3.9191999999999996 0.0115 4.2136 -0.10235a0.1012 0.1012 0 0 0 0.06554999999999998 -0.0782c0.09774999999999999 -0.32084999999999997 0.16444999999999999 -3.07855 0 -3.335 -0.040249999999999994 -0.06325 -0.184 -0.08279999999999998 -0.26335 -0.09429999999999998 -1.0246499999999998 -0.1495 -5.30035 -0.0851 -5.52 0.03105s-0.1265 1.2500499999999999 -0.0851 1.47545c-2.2206499999999996 -0.07129999999999999 -7.3485 0.06785 -7.831499999999998 0.2484 -0.11499999999999999 0.04139999999999999 -0.15755 0.19895 -0.18055 0.31739999999999996 -0.1909 0.9855499999999999 0.345 4.1572499999999994 0.5243999999999999 5.1370499999999995 -0.0115 0 0 0 -0.14029999999999998 0.21849999999999997a1.4190999999999998 1.4190999999999998 0 0 0 -0.35534999999999994 0.0184c-0.26219999999999993 0.040249999999999994 -0.5036999999999999 0.40249999999999997 -0.6371 0.6278999999999999 -0.00575 0.0115 -0.345 0.575 -0.39559999999999995 0.6669999999999999 -0.28864999999999996 -0.04485 -1.6306999999999998 -0.027599999999999996 -1.8009 -0.0184s-0.345 0.021849999999999998 -0.49909999999999993 0.03335c-0.027599999999999996 0 -0.0299 0.052899999999999996 0 0.054049999999999994 0.32199999999999995 0.01955 0.44044999999999995 0.026449999999999998 0.69 0.0299 0.6106499999999999 0.0092 1.5110999999999999 0.034499999999999996 1.53985 0.03105 -0.0598 0.10464999999999999 -0.9453 1.6801499999999998 -1.06375 1.9032499999999999 -0.5152 0.966 -0.9199999999999999 1.85035 -0.94415 1.9250999999999996a1.7617999999999998 1.7617999999999998 0 0 0 -0.37374999999999997 0.22999999999999998 1.1178 1.1178 0 0 0 -0.06554999999999998 0.3151c-0.00575 0.18515 0.06095 0.22999999999999998 0.16329999999999997 0.33349999999999996a11.844999999999999 11.844999999999999 0 0 0 -0.6750499999999999 1.8238999999999999 1.8227499999999999 1.8227499999999999 0 0 0 -0.006899999999999999 0.76935 2.392 2.392 0 0 0 0.25989999999999996 0.7244999999999999 0.37949999999999995 0.37949999999999995 0 0 0 0.20815 0.10809999999999999c0.30244999999999994 0.0851 1.2396999999999998 0.19434999999999997 1.5536499999999998 0.22999999999999998a1.7652499999999998 1.7652499999999998 0 0 0 -0.01955 0.4255 1.5317999999999998 1.5317999999999998 0 0 0 0.06325 0.43239999999999995 0.02660579119 0.02660579119 0 0 0 0.052899999999999996 -0.00575 2.3275999999999994 2.3275999999999994 0 0 0 0.01495 -0.43239999999999995 1.9227999999999996 1.9227999999999996 0 0 0 -0.04714999999999999 -0.41284999999999994c0.15869999999999998 0.013799999999999998 0.31165 0.0253 0.44505 0.0299a1.78135 1.78135 0 0 0 -0.017249999999999998 0.4059499999999999 1.5375499999999998 1.5375499999999998 0 0 0 0.06325 0.43239999999999995 0.026449999999999998 0.026449999999999998 0 0 0 0.052899999999999996 0 2.28735 2.28735 0 0 0 0.0161 -0.43239999999999995 1.84805 1.84805 0 0 0 -0.046 -0.39905c0.25644999999999996 0.00575 4.030749999999999 0.345 10.54895 0.21619999999999998 1.7468499999999998 -0.034499999999999996 3.84675 -0.11499999999999999 5.57635 -0.30474999999999997a1.8054999999999999 1.8054999999999999 0 0 0 -0.01955 0.41974999999999996 1.5145499999999998 1.5145499999999998 0 0 0 0.0644 0.43124999999999997 0.026449999999999998 0.026449999999999998 0 1 0 0.05175 0 2.1217499999999996 2.1217499999999996 0 0 0 0.0161 -0.43239999999999995 1.97455 1.97455 0 0 0 -0.049449999999999994 -0.42205c0.12765 -0.013799999999999998 0.42319999999999997 -0.0506 0.44849999999999995 -0.054049999999999994a1.7652499999999998 1.7652499999999998 0 0 0 -0.0184 0.41744999999999993 1.5145499999999998 1.5145499999999998 0 0 0 0.06325 0.43239999999999995 0.02660579119 0.02660579119 0 0 0 0.052899999999999996 -0.00575 2.22755 2.22755 0 0 0 0.01495 -0.43124999999999997 1.8997999999999997 1.8997999999999997 0 0 0 -0.049449999999999994 -0.4209c0.5186499999999999 -0.07014999999999999 2.1045 -0.28405 2.3207 -0.7268 0.2553 -0.5048499999999999 0.23459999999999998 -1.1615 0.1288 -1.7088999999999999zm-10.465 -1.8515c0.01265 -0.03105 0.3979 -0.11499999999999999 0.8188 0a0.026449999999999998 0.026449999999999998 0 1 1 0 0.05175 2.1183 2.1183 0 0 1 -0.6347999999999999 0.0161c-0.09889999999999999 -0.0161 -0.22424999999999998 -0.017249999999999998 -0.18744999999999998 -0.06785zm5.91215 2.7347c-1.06375 0.2024 -6.94025 0.1564 -7.0287999999999995 0.11499999999999999s-0.09659999999999999 -0.17479999999999998 -0.09889999999999999 -0.26219999999999993c0.6371 0.207 6.86205 0.04714999999999999 7.2082 -0.1357 0.0184 0.1012 0.023 0.26335 -0.08395 0.2829zm-2.23215 -2.72205c0 -0.0391 0.253 -0.06095 0.26449999999999996 -0.0621a2.9463 2.9463 0 0 1 0.45194999999999996 0c0.08395 0.0092 0.20009999999999997 0.020699999999999996 0.1909 0.05635s-0.18284999999999998 0.0506 -0.21275 0.05519999999999999a3.31085 3.31085 0 0 1 -0.33809999999999996 0.013799999999999998c-0.0759 -0.0023 -0.36455 -0.0161 -0.35994999999999994 -0.06325zm1.47775 0.38294999999999996a11.155 11.155 0 0 1 0.7222 1.7077499999999999 0.8049999999999999 0.8049999999999999 0 0 1 0.040249999999999994 0.22999999999999998c-0.5186499999999999 0.16099999999999998 -6.49635 0.32659999999999995 -7.101249999999999 0.15295 -0.028749999999999998 -0.00805 -0.0368 0 -0.043699999999999996 -0.048299999999999996 -0.043699999999999996 -0.3128 0.46805 -1.5559499999999997 0.5864999999999999 -1.84575 2.1758 -0.07245 5.773 -0.184 5.792549999999999 -0.19665zM16.0747 8.096a1.3650499999999999 1.3650499999999999 0 0 1 -0.33809999999999996 -0.26219999999999993c-0.04485 -0.06785 -0.034499999999999996 -0.11499999999999999 0.09774999999999999 -0.0506 0.08279999999999998 0.03795 0.19895 0.10579999999999999 0.27715 0.15295a0.5566 0.5566 0 0 0 -0.0368 0.15984999999999996zm2.76 0.20584999999999998c0.092 -0.16559999999999997 0.18284999999999998 -0.21275 0.17365 -0.11499999999999999a2.2678 2.2678 0 0 1 -0.20929999999999999 0.5014c-0.006899999999999999 -0.11499999999999999 -0.01495 -0.19204999999999997 -0.024149999999999998 -0.26794999999999997 0.0046 -0.0161 0.027599999999999996 -0.0644 0.05635 -0.11845zm-0.48874999999999996 1.0005c0.023 0.06554999999999998 0.03795 0.10464999999999999 0.0391 0.10695a0.026449999999999998 0.026449999999999998 0 0 0 0.034499999999999996 0.01495c0.0506 -0.01955 -0.024149999999999998 -0.0667 -0.14375 -0.76015 -0.035649999999999994 -0.207 -0.14145 -0.84525 0.06785 -0.87515 0.1702 -0.0253 0.26219999999999993 0.39675 0.2944 0.5635a7.439349999999999 7.439349999999999 0 0 1 0.11499999999999999 0.9729 0.026449999999999998 0.026449999999999998 0 0 0 0.05175 0.00805 0.17709999999999998 0.17709999999999998 0 0 0 0 -0.01955 1.4466999999999999 1.4466999999999999 0 0 1 0.3082 0.04255 0.12765 0.12765 0 0 1 -0.04714999999999999 0.034499999999999996c-0.2415 0.1242 -0.9717499999999999 0.10004999999999999 -1.2236 0.09545 0.034499999999999996 -0.06899999999999999 0.058649999999999994 -0.1219 0.0851 -0.18515a1.3017999999999998 1.3017999999999998 0 0 0 0.41514999999999996 0.00115zm-0.8969999999999999 -0.25184999999999996c0.026449999999999998 -0.22999999999999998 0.0851 -0.59685 0.31739999999999996 -0.5531499999999999s0.17365 0.38065 0.12304999999999999 0.6060499999999999a3.5741999999999994 3.5741999999999994 0 0 1 -0.11499999999999999 0.3818l-0.345 0a3.8755 3.8755 0 0 1 0.0161 -0.4346999999999999zm-0.14604999999999999 -0.5405a0.052899999999999996 0.052899999999999996 0 0 1 0.0782 0.00575 0.414 0.414 0 0 1 0.049449999999999994 0.0598 0.90965 0.90965 0 0 0 -0.06785 0.22999999999999998c-0.0598 -0.08279999999999998 -0.13684999999999997 -0.23344999999999996 -0.0598 -0.29555zm-0.36224999999999996 -0.6991999999999999c0.1495 0.04714999999999999 0.0322 0.44044999999999995 -0.06785 0.5600499999999999a1.7180999999999997 1.7180999999999997 0 0 0 -0.12304999999999999 -0.3588c0.03335 -0.1012 0.0897 -0.23344999999999996 0.1909 -0.2024zM16.657749999999997 9.315c0.05635 0.07129999999999999 0.09315 0.11499999999999999 0.09315 0.11499999999999999a0.026449999999999998 0.026449999999999998 0 0 0 0.04139999999999999 -0.0322s-0.20354999999999998 -0.2898 -0.37144999999999995 -0.58995c-0.1265 -0.22999999999999998 -0.24724999999999997 -0.45999999999999996 -0.2139 -0.71415 0.026449999999999998 -0.20009999999999997 0.13224999999999998 -0.28519999999999995 0.3105 -0.16904999999999998 0.2576 0.16559999999999997 0.37489999999999996 1.1867999999999999 0.41169999999999995 1.4949999999999999a0.0391 0.0391 0 0 0 0.027599999999999996 0.035649999999999994c0.03105 0 0.026449999999999998 -0.03335 0.0253 -0.049449999999999994s0 -0.09659999999999999 0 -0.10464999999999999a1.4662499999999998 1.4662499999999998 0 0 0 0.368 0c0.006899999999999999 0.08395 0.01495 0.1495 0.020699999999999996 0.184 -0.40824999999999995 0 -0.9016 0.027599999999999996 -1.2396999999999998 -0.10464999999999999a3.7144999999999992 3.7144999999999992 0 0 1 0.5267 -0.06554999999999998zm-0.55085 0.16904999999999998a1.7503 1.7503 0 0 0 0.52555 0.11499999999999999c0.20354999999999998 0.0184 1.5893 0.020699999999999996 1.7468499999999998 0.01265a2.1136999999999997 2.1136999999999997 0 0 0 0.69575 -0.12994999999999998 1.035 1.035 0 0 1 -0.21505 0.8015499999999999c-0.27945 0.32775 -2.0469999999999997 0.40249999999999997 -2.4713499999999997 0.1035 -0.27945 -0.19204999999999997 -0.33005 -0.5761499999999999 -0.28175 -0.9038999999999999zM15.18 12.860449999999998c0.024149999999999998 0.07705 -10.941099999999999 0.08049999999999999 -10.952599999999999 0.07934999999999999 -0.45999999999999996 0 -0.345 0 -0.49909999999999993 -0.03795 -0.04139999999999999 -0.0092 -0.049449999999999994 -0.0092 -0.057499999999999996 -0.049449999999999994a0.86135 0.86135 0 0 1 -0.00805 -0.1909 0.024149999999999998 0.024149999999999998 0 0 0 0.026449999999999998 0.01265s11.48735 -0.1564 11.5621 -0.15869999999999998c0.03105 0.13454999999999998 0.035649999999999994 0.25989999999999996 -0.07129999999999999 0.345zm3.2349499999999995 -6.979349999999999s0.006899999999999999 -0.0115 0.0092 -0.00805 -0.0092 0.006899999999999999 -0.01495 0.00805zM12.696 2.9808c0 -0.07475 0.0299 -0.35764999999999997 0.09659999999999999 -0.39215 0.1518 -0.0759 4.97605 -0.14029999999999998 5.635 0.06554999999999998 0.11499999999999999 0.2415 0.0782 2.95435 -0.0184 3.2268999999999997 -0.5658 0.08854999999999999 -3.4132 0.08164999999999999 -4.1537999999999995 0.15755 0.04485 -0.9050499999999999 0.0644 -1.6675 0.027599999999999996 -1.8158499999999997a0.1334 0.1334 0 0 0 -0.08625 -0.08164999999999999c-0.25184999999999996 -0.10924999999999999 -1.19945 -0.14029999999999998 -1.47545 -0.1495a6.228399999999999 6.228399999999999 0 0 1 -0.0253 -1.0108499999999998zM4.7437499999999995 5.8765c-0.017249999999999998 -0.2415 -0.10235 -1.4605 0.12765 -1.5455999999999999 0.11499999999999999 -0.040249999999999994 0.5197999999999999 -0.08049999999999999 1.10745 -0.11499999999999999 1.1258499999999998 -0.07014999999999999 2.9002999999999997 -0.1265 4.514899999999999 -0.13799999999999998 0.3588 0 3.3901999999999997 -0.026449999999999998 3.6869 0.17709999999999998 0.08739999999999999 0.3979 -0.19204999999999997 4.818499999999999 -0.25415 5.24515 -2.7174499999999995 0.08854999999999999 -5.93745 0.22194999999999998 -8.6779 0.15525 -0.046 -0.26335 -0.3979 -2.2954 -0.5048499999999999 -3.7788999999999997zm0.46919999999999995 3.85595a0.049449999999999994 0.049449999999999994 0 0 0 0 -0.00805c1.93775 0.0598 8.0017 -0.13915 8.739999999999998 -0.14375 0.08164999999999999 0.18974999999999997 1.2282 2.7335499999999997 1.2765 2.875 -0.01265 0 -11.54945 0.1564 -11.5644 0.1679 0.1449 -0.48529999999999995 1.3432 -2.5368999999999997 1.5479 -2.8911zm3.1613499999999997 7.704999999999999c-0.0851 0.16559999999999997 -2.6633999999999998 1.3179 -3.1935499999999997 1.47775a0.67275 0.67275 0 0 0 0.0115 -0.16099999999999998c0.7831499999999999 -0.2714 2.48285 -0.9878499999999999 3.2452999999999994 -1.4949999999999999a0.8785999999999999 0.8785999999999999 0 0 1 -0.06325 0.1794zm0.07934999999999999 -0.25415c-0.22999999999999998 0.1357 -0.44965 0.22999999999999998 -3.26255 1.5087999999999997a0.575 0.575 0 0 0 -0.020699999999999996 -0.1541c0.368 -0.1725 2.8634999999999997 -1.1396499999999998 3.30855 -1.5249 -0.00575 0.049449999999999994 -0.013799999999999998 0.10924999999999999 -0.0253 0.17134999999999997zM2.53 14.8235a0.42205 0.42205 0 0 1 0.048299999999999996 0.4760999999999999c-0.0184 0.028749999999999998 0.0253 0.058649999999999994 0.043699999999999996 0.028749999999999998a0.44389999999999996 0.44389999999999996 0 0 0 0.03105 -0.5623499999999999c0.5589 -0.25644999999999996 1.1086 -0.49794999999999995 1.2592499999999998 -0.5635a0.575 0.575 0 0 1 0.006899999999999999 0.49334999999999996c-0.013799999999999998 0.0368 0.027599999999999996 0.0506 0.04714999999999999 0.026449999999999998a0.5451 0.5451 0 0 0 0.0621 -0.575c0.1242 -0.07014999999999999 0.414 -0.22999999999999998 0.55545 -0.22999999999999998 0.17709999999999998 0 3.77085 2.9233 3.8375499999999994 2.9899999999999998 -0.30015 0.30934999999999996 -3.0866 1.4122 -3.3211999999999997 1.5249 -0.49449999999999994 -0.11499999999999999 -3.5120999999999998 -2.71055 -3.795 -2.97735 0.17595 -0.14604999999999999 1.0269499999999998 -0.53935 1.22475 -0.63135zm-1.31215 0.6842499999999999c0.3588 0.35074999999999995 3.3522499999999997 2.9635499999999997 3.8536499999999996 3.0463499999999994a0.5370499999999999 0.5370499999999999 0 0 0 -0.013799999999999998 0.13224999999999998c-0.8049999999999999 -0.3933 -3.1049999999999995 -2.3850999999999996 -3.8662999999999994 -3.0256499999999997 0.0034499999999999995 0 0.020699999999999996 -0.1127 0.0299 -0.15295zm0.017249999999999998 0.39444999999999997a0.28175 0.28175 0 0 1 -0.046 -0.16674999999999998c0.7521 0.7589999999999999 2.875 2.6254499999999994 3.86745 3.01415a0.69 0.69 0 0 0 0.0184 0.18284999999999998c-0.58995 -0.13224999999999998 -3.76165 -2.93595 -3.8364 -3.03025zm20.93 2.9233c-0.7428999999999999 1.4743 -20.902399999999997 1.08905 -21.229 0.5140499999999999a2.28965 2.28965 0 0 1 -0.27599999999999997 -0.7785499999999999 0.5036999999999999 0.5036999999999999 0 0 0 0.21159999999999998 0.22999999999999998c1.6927999999999999 0.9855499999999999 18.534549999999996 0.72795 20.733349999999998 -0.0621 0.46574999999999994 -0.1679 0.7003499999999999 -0.53015 0.75325 -1.035a2.3080499999999997 2.3080499999999997 0 0 1 -0.19549999999999998 1.1316z"
                stroke-width="1"></path>
            <path
                d="M4.944999999999999 11.004349999999999c8.131649999999999 0.11499999999999999 8.907899999999998 0.04485 9.135599999999998 0.0092 0.054049999999999994 -0.00805 0.08854999999999999 -0.026449999999999998 0.08625 -0.0897 0 -0.16674999999999998 -0.39099999999999996 -0.9314999999999999 -0.49449999999999994 -0.9843999999999999 -0.046 -0.024149999999999998 -8.28 0.092 -8.30875 0.1012a0.0391 0.0391 0 0 0 -0.0253 0.01955c-0.0782 0.12765 -0.45999999999999996 0.7578499999999999 -0.44275 0.90045a0.05175 0.05175 0 0 0 0.049449999999999994 0.043699999999999996zM5.3969499999999995 10.12c0.08279999999999998 -0.010349999999999998 8.183399999999999 -0.09085 8.23285 -0.08625a3.1383499999999995 3.1383499999999995 0 0 1 0.22999999999999998 0.38755c-0.18859999999999996 0 -8.618099999999998 0.04485 -8.661799999999998 0.046 0.0506 -0.1012 0.11729999999999999 -0.21619999999999998 0.19895 -0.3473zm-0.22999999999999998 0.40249999999999997c0.04485 0 8.574399999999999 -0.043699999999999996 8.72045 -0.04714999999999999a2.15855 2.15855 0 0 1 0.17825 0.44389999999999996c-0.4094 0.06554999999999998 -4.14 0.03335 -9.07925 0a2.24365 2.24365 0 0 1 0.17825 -0.40135zm6.124899999999999 0.8728499999999999a0.28175 0.28175 0 0 0 -0.26565 -0.16559999999999997c-0.29209999999999997 0 -2.74505 -0.06785 -2.9658499999999997 0.021849999999999998a1.84575 1.84575 0 0 0 -0.32199999999999995 0.575c-0.006899999999999999 0.0506 0.0184 0.0736 0.049449999999999994 0.07705 0.69 0.07475 2.97735 0.14604999999999999 3.57075 0.0368 0.0736 -0.013799999999999998 0.08279999999999998 -0.092 0.06785 -0.16674999999999998a2.76 2.76 0 0 0 -0.13454999999999998 -0.37834999999999996zm-3.47185 0.43124999999999997a2.3207 2.3207 0 0 1 0.2668 -0.5278499999999999c0.17479999999999998 -0.057499999999999996 2.4483499999999996 0.0621 2.94285 0.06095a0.15295 0.15295 0 0 1 0.14259999999999998 0.0851 1.9354499999999997 1.9354499999999997 0 0 1 0.12994999999999998 0.3726c-0.58305 0.09085 -3.0589999999999997 0.0391 -3.4821999999999997 0.0092zm11.458599999999999 -0.28405c-0.16215 -0.22309999999999997 -0.9752 -0.21275 -1.24775 -0.2047 -0.22999999999999998 0 -1.06605 0.03795 -1.06605 0.26335a0.11499999999999999 0.11499999999999999 0 0 0 0.052899999999999996 0.09085c0.021849999999999998 0.017249999999999998 -0.1288 1.5329499999999998 0.0782 2.3459999999999996 0.06785 0.26909999999999995 0.15525 0.40249999999999997 0.41169999999999995 0.5140499999999999 0.49219999999999997 0.2139 1.3087 0.16674999999999998 1.63645 -0.2898 0.06554999999999998 -0.1334 0.05175 -0.5221 0.057499999999999996 -0.64055 0.50945 0.1012 0.9269 -0.10579999999999999 1.035 -0.65435 0.06785 -0.35305 -0.01955 -0.5841999999999999 -0.1702 -0.7244999999999999a0.8049999999999999 0.8049999999999999 0 0 0 -0.73025 -0.1495 0.028749999999999998 0.028749999999999998 0 0 1 -0.03795 -0.027599999999999996c0 -0.06095 0.021849999999999998 -0.4738 -0.01955 -0.52325zm-2.1849999999999996 0.024149999999999998c0.3105 -0.1817 1.5755 -0.19549999999999998 1.98375 -0.010349999999999998 0.013799999999999998 0.006899999999999999 0.06554999999999998 0.03335 0.06554999999999998 0.04485s-0.052899999999999996 0.0391 -0.06554999999999998 0.04485c-0.3082 0.13915 -1.40875 0.2024 -1.9872 -0.0092 -0.040249999999999994 -0.021849999999999998 0 -0.06554999999999998 0 -0.07014999999999999zm2.2747 0.6439999999999999a0.67275 0.67275 0 0 1 0.6118 0.12535c0.1242 0.11499999999999999 0.1863 0.3128 0.1288 0.6060499999999999a0.6520499999999999 0.6520499999999999 0 0 1 -0.3243 0.49334999999999996 0.8866499999999999 0.8866499999999999 0 0 1 -0.6003 0.046 0.0759 0.0759 0 0 0 -0.09889999999999999 0.0506c-0.03105 0.08739999999999999 0.01265 0.44044999999999995 -0.0506 0.6635499999999999 -0.29094999999999993 0.39444999999999997 -1.035 0.4301 -1.47545 0.24494999999999997 -0.22309999999999997 -0.09545 -0.28519999999999995 -0.19434999999999997 -0.345 -0.43239999999999995 -0.1541 -0.56465 -0.16329999999999997 -1.7146499999999998 -0.1288 -2.2804499999999996 0.36224999999999996 0.17134999999999997 1.6169 0.22079999999999997 2.11025 -0.0322 0 0.3565 -0.043699999999999996 0.4163 0.046 0.48874999999999996a0.1495 0.1495 0 0 0 0.12304999999999999 0.026449999999999998zm-11.1711 2.4368499999999997a6.47105 6.47105 0 0 0 -0.9705999999999999 -0.6808 2.0378 2.0378 0 0 0 -0.41974999999999996 -0.18744999999999998c-0.12304999999999999 -0.0322 -0.17479999999999998 0.03105 -0.1495 0.11499999999999999a1.4006999999999998 1.4006999999999998 0 0 0 0.20354999999999998 0.33465 5.273899999999999 5.273899999999999 0 0 0 0.9061999999999999 0.8981499999999999c0.5128999999999999 0.42894999999999994 1.1776 0.94875 1.6629 1.3179a0.22999999999999998 0.22999999999999998 0 0 0 0.3243 -0.054049999999999994c0.0851 -0.09315 0.13799999999999998 -0.25644999999999996 0.04255 -0.345 -0.11039999999999998 -0.09889999999999999 -0.78545 -0.7348499999999999 -1.5996499999999998 -1.3983999999999999zm-1.1017 -0.2553 -0.15755 -0.25415a0.29209999999999997 0.29209999999999997 0 0 0 0.1357 -0.11499999999999999l0.24954999999999997 0.1012a0.2829 0.2829 0 0 0 -0.22769999999999999 0.26794999999999997zm0.35305 0.29324999999999996a1.8975 1.8975 0 0 1 -0.22999999999999998 -0.22999999999999998c0.00805 -0.13915 0.05175 -0.20124999999999998 0.1909 -0.20584999999999998a1.3983999999999999 1.3983999999999999 0 0 1 0.26105 0.16215 0.29094999999999993 0.29094999999999993 0 0 0 -0.22194999999999998 0.27369999999999994zm1.9665 1.67325c-0.12765 -0.10695 -1.8250499999999998 -1.5467499999999998 -1.9297 -1.63875a0.32084999999999997 0.32084999999999997 0 0 1 0.24494999999999997 -0.26909999999999995c0.39675 0.2944 0.96715 0.7819999999999999 1.9618999999999998 1.6099999999999999a0.26565 0.26565 0 0 0 -0.27715 0.29784999999999995zm9.112599999999999 1.2742c0.14375 0.09774999999999999 0.2438 0.052899999999999996 0.33694999999999997 -0.08279999999999998 0.22999999999999998 -0.32659999999999995 1.035 -1.77215 1.035 -1.7836499999999997s0.0092 0.010349999999999998 -0.028749999999999998 -0.45425a0.09774999999999999 0.09774999999999999 0 0 0 -0.15755 -0.06785L19.32 15.53075s-0.8728499999999999 1.80435 -0.8820499999999999 1.82045a0.2576 0.2576 0 0 0 0.0897 0.28175zm1.2178499999999999 -2.24825c0.006899999999999999 0.08395 0.0161 0.19549999999999998 0.023 0.27255a1.38 1.38 0 0 0 -0.2668 -0.09545zm-0.32889999999999997 0.2553a0.7647499999999999 0.7647499999999999 0 0 0 0.3358 0.1334c-0.017249999999999998 0.0299 -0.8958499999999999 1.6329999999999998 -0.9050499999999999 1.6490999999999998a0.27485 0.27485 0 0 0 -0.30015 -0.14834999999999998c0.0897 -0.16674999999999998 0.8371999999999999 -1.5766499999999999 0.8693999999999998 -1.63415z"
                stroke-width="1"></path>
            <path
                d="M18.8876 13.359549999999999a0.16099999999999998 0.16099999999999998 0 0 0 -0.10579999999999999 -0.06554999999999998 1.6594499999999999 1.6594499999999999 0 0 0 -0.207 -0.04139999999999999c0.0391 0.27369999999999994 0.0621 0.575 0.06095 0.60145a0.0667 0.0667 0 0 1 -0.07245 0.0598 0.06785 0.06785 0 0 1 -0.0598 -0.0736c0 -0.01955 -0.006899999999999999 -0.09889999999999999 -0.01265 -0.59915 -0.22999999999999998 -0.028749999999999998 -1.33745 -0.11499999999999999 -1.29375 0.10579999999999999 0 0.0115 -0.09085 0.575 0.26105 0.84525s1.0556999999999999 0.21734999999999996 1.3017999999999998 -0.057499999999999996a0.60835 0.60835 0 0 0 0.1334 -0.29209999999999997 1.3489499999999999 1.3489499999999999 0 0 0 -0.00575 -0.483zm0.27599999999999997 -1.04075c0 0.05175 -0.06899999999999999 0.44734999999999997 -0.11499999999999999 0.9786499999999999l0.05519999999999999 0.0115a0.9682999999999999 0.9682999999999999 0 0 0 0.60145 -0.06554999999999998 0.4094 0.4094 0 0 0 0.21045 -0.3703 0.5485499999999999 0.5485499999999999 0 0 0 -0.7521 -0.5543zm0.05175 0.0391a0.5197999999999999 0.5197999999999999 0 0 1 0.41514999999999996 0.11499999999999999 0.48185 0.48185 0 0 1 0.1541 0.39905c-0.010349999999999998 0.29555 -0.31394999999999995 0.3519 -0.6048999999999999 0.32199999999999995 0.013799999999999998 -0.20929999999999999 0.0253 -0.44965 0.035649999999999994 -0.8360499999999998zM8.084499999999998 11.298749999999998s0.00115 0.00115 0 0zm9.899199999999999 -5.69135a0.15525 0.15525 0 0 0 0.1541 0.15755 0.15755 0.15755 0 1 0 -0.1541 -0.15755zM5.3969499999999995 9.40125c0.026449999999999998 0.05175 0.06095 0.057499999999999996 0.08279999999999998 0.04139999999999999s7.3048 -0.07934999999999999 7.84645 -0.10809999999999999a1.2339499999999999 1.2339499999999999 0 0 0 0.345 -0.043699999999999996c0.25875 -0.22999999999999998 0.35994999999999994 -4.52985 0.25875 -4.7288 -0.25875 -0.51635 -8.35705 -0.184 -8.854999999999999 -0.03335 -0.39675 0.1196 0.13915 4.5057 0.32199999999999995 4.8725499999999995zM5.0531 4.715c0 -0.020699999999999996 0.0253 -0.1012 0.04485 -0.10695 0.55085 -0.16559999999999997 8.5491 -0.43815 8.766449999999999 -0.00575a1.15 1.15 0 0 1 0.0253 0.26335c0.01955 0.5014 0 1.5755 -0.05175 2.5380499999999997 -0.010349999999999998 0.184 -0.092 1.6916499999999999 -0.21159999999999998 1.8284999999999998 -0.47725 0.1012 -7.831499999999998 0.1242 -8.1581 0.13684999999999997 -0.1863 -0.43239999999999995 -0.5888 -3.8950499999999995 -0.41514999999999996 -4.65405zM18.152749999999997 3.07165a0.15755 0.15755 0 1 0 -0.1541 -0.15869999999999998 0.15525 0.15525 0 0 0 0.1541 0.15869999999999998z"
                stroke-width="1"></path>
            <path
                d="m7.303649999999999 7.6129999999999995 1.3662 0a0.59685 0.59685 0 0 0 0.5945499999999999 -0.598l0 -1.1086a0.6026 0.6026 0 0 0 -0.5945499999999999 -0.6026l-1.3662 0a0.6003 0.6003 0 0 0 -0.6026 0.6026l0 1.1086a0.6003 0.6003 0 0 0 0.6026 0.598zm-0.5048499999999999 -1.7066a0.50945 0.50945 0 0 1 0.5048499999999999 -0.5014l1.3662 0a0.5083 0.5083 0 0 1 0.5140499999999999 0.50715l0 1.1028499999999999a0.5117499999999999 0.5117499999999999 0 0 1 -0.5140499999999999 0.50945l-1.3662 0a0.50715 0.50715 0 0 1 -0.5048499999999999 -0.50945zm4.19865 2.5277c0.023 0.06785 0.08049999999999999 0.052899999999999996 0.09659999999999999 0.010349999999999998 0.021849999999999998 -0.06095 0.1495 -0.49909999999999993 0.16559999999999997 -0.575 0.08854999999999999 -0.027599999999999996 -0.16099999999999998 0.058649999999999994 0.6106499999999999 -0.22194999999999998a0.04255 0.04255 0 0 0 0 -0.07934999999999999l-1.1822 -0.47265a0.046 0.046 0 0 0 -0.06554999999999998 0.04485s0.31165 1.1109 0.37489999999999996 1.29375zm-0.25644999999999996 -1.21555 0.9958999999999999 0.39215c-0.1334 0.049449999999999994 -0.3588 0.13454999999999998 -0.4668999999999999 0.17825 -0.048299999999999996 0.0184 -0.06785 0.026449999999999998 -0.07934999999999999 0.04139999999999999s0.028749999999999998 -0.07475 -0.14029999999999998 0.44619999999999993zM13.454999999999998 3.84675a0.0299 0.0299 0 0 0 0.0299 0.024149999999999998c0.024149999999999998 0 0.7681999999999999 0.07129999999999999 0.9199999999999999 0.03105 0.09774999999999999 -0.026449999999999998 0.11499999999999999 -0.19895 0.1242 -0.30015 0.0115 -0.15295 0 -0.5278499999999999 -0.0644 -0.6555 -0.08739999999999999 -0.1725 -0.7325499999999999 -0.11499999999999999 -0.9199999999999999 -0.08164999999999999a0.3358 0.3358 0 0 0 -0.13915 0.052899999999999996 0.16674999999999998 0.16674999999999998 0 0 0 -0.040249999999999994 0.1012A3.7259999999999995 3.7259999999999995 0 0 0 13.454999999999998 3.84675zm0.03335 -0.8406499999999999c0.1817 -0.05635 0.6991999999999999 -0.0782 0.8636499999999999 0 0.05635 0.1495 0.08625 0.6635499999999999 0.0184 0.7831499999999999 -0.10695 0.027599999999999996 -0.76015 0.027599999999999996 -0.8693999999999998 0.028749999999999998 -0.0034499999999999995 -0.0897 -0.05635 -0.57385 -0.01265 -0.8118999999999998zm1.50995 0.8360499999999998a0.03105 0.03105 0 0 0 0.0299 0.024149999999999998c0.024149999999999998 0 0.7681999999999999 0.07129999999999999 0.9199999999999999 0.03105 0.09774999999999999 -0.026449999999999998 0.11499999999999999 -0.19895 0.12535 -0.30015 0.010349999999999998 -0.15295 0 -0.5278499999999999 -0.06554999999999998 -0.6555 -0.08739999999999999 -0.17365 -0.7325499999999999 -0.11499999999999999 -0.9199999999999999 -0.08164999999999999a0.35074999999999995 0.35074999999999995 0 0 0 -0.13915 0.052899999999999996 0.17479999999999998 0.17479999999999998 0 0 0 -0.040249999999999994 0.1012 3.7340499999999994 3.7340499999999994 0 0 0 0.0897 0.828zm0.03335 -0.8406499999999999c0.1817 -0.057499999999999996 0.6991999999999999 -0.0782 0.8636499999999999 0 0.05635 0.1495 0.08625 0.6635499999999999 0.0184 0.7819999999999999 -0.10695 0.028749999999999998 -0.76015 0.028749999999999998 -0.8693999999999998 0.0299 -0.0034499999999999995 -0.0897 -0.05635 -0.57385 -0.01265 -0.8118999999999998zm1.5812499999999998 0.8912499999999999a0.0299 0.0299 0 0 0 0.0299 0.024149999999999998c0.024149999999999998 0 0.7681999999999999 0.07129999999999999 0.9199999999999999 0.03105 0.09774999999999999 -0.026449999999999998 0.11499999999999999 -0.19895 0.1242 -0.30015 0.0115 -0.15295 0 -0.5278499999999999 -0.0644 -0.6555 -0.08739999999999999 -0.1725 -0.7325499999999999 -0.11499999999999999 -0.9199999999999999 -0.08164999999999999a0.345 0.345 0 0 0 -0.13915 0.052899999999999996 0.16674999999999998 0.16674999999999998 0 0 0 -0.040249999999999994 0.1012 3.7259999999999995 3.7259999999999995 0 0 0 0.0897 0.828zm0.03335 -0.8406499999999999c0.1817 -0.05635 0.6991999999999999 -0.0782 0.8636499999999999 0 0.05635 0.1495 0.08625 0.6635499999999999 0.0184 0.7831499999999999 -0.10695 0.027599999999999996 -0.76015 0.027599999999999996 -0.8693999999999998 0.028749999999999998 -0.0034499999999999995 -0.0897 -0.05635 -0.57385 -0.01265 -0.8118999999999998zm-1.6376 2.55875c0.00805 0.023 0.026449999999999998 0.0253 0.0299 0.024149999999999998 0.0253 0 0.7681999999999999 0.07129999999999999 0.9199999999999999 0.03105 0.09774999999999999 -0.026449999999999998 0.11499999999999999 -0.19895 0.12535 -0.30015 0.010349999999999998 -0.15295 0 -0.5278499999999999 -0.0644 -0.65435 -0.08854999999999999 -0.17365 -0.7336999999999999 -0.11499999999999999 -0.9199999999999999 -0.08279999999999998a0.345 0.345 0 0 0 -0.14029999999999998 0.052899999999999996 0.17479999999999998 0.17479999999999998 0 0 0 -0.040249999999999994 0.10235 3.7225499999999996 3.7225499999999996 0 0 0 0.0897 0.82685zm0.034499999999999996 -0.8406499999999999c0.1817 -0.05635 0.69805 -0.0782 0.8624999999999999 0 0.05635 0.1495 0.08625 0.6635499999999999 0.0184 0.7831499999999999 -0.10695 0.027599999999999996 -0.7589999999999999 0.027599999999999996 -0.86825 0.028749999999999998 -0.0046 -0.0897 -0.057499999999999996 -0.57385 -0.01265 -0.8118999999999998zm2.6541999999999994 -0.10579999999999999c0.184 -0.2714 0.345 -0.51635 0.35074999999999995 -0.5278499999999999s-0.0782 -0.11499999999999999 -0.12765 -0.04139999999999999c-0.3519 0.54165 -0.3036 0.48989999999999995 -0.32889999999999997 0.4806999999999999 -0.2024 -0.0736 -0.8556 -0.048299999999999996 -0.95795 0.04714999999999999 -0.06899999999999999 0.0644 -0.04255 0.29784999999999995 -0.034499999999999996 0.3979 -0.0736 -0.04139999999999999 -0.12994999999999998 -0.07129999999999999 -0.15065 -0.07934999999999999 -0.052899999999999996 -0.020699999999999996 -0.049449999999999994 0.03105 -0.020699999999999996 0.049449999999999994l0.1794 0.11499999999999999a3.864 3.864 0 0 0 0.07014999999999999 0.44965 0.028749999999999998 0.028749999999999998 0 0 0 0.0299 0.024149999999999998c0.024149999999999998 0 0.7681999999999999 0.07129999999999999 0.9199999999999999 0.03105 0.19779999999999998 -0.05519999999999999 0.13684999999999997 -0.7808499999999999 0.07014999999999999 -0.94645zm-0.9866999999999999 0.04714999999999999a2.0170999999999997 2.0170999999999997 0 0 1 0.8233999999999999 -0.01495L17.134999999999998 5.3256499999999996c-0.040249999999999994 -0.023 -0.2553 -0.1495 -0.4346999999999999 -0.2507a1.96535 1.96535 0 0 1 0.010349999999999998 -0.35994999999999994zm0.8820499999999999 0.7819999999999999c-0.10809999999999999 0.028749999999999998 -0.76015 0.028749999999999998 -0.8693999999999998 0.0299 0 -0.046 -0.017249999999999998 -0.19665 -0.0253 -0.3634l0.43699999999999994 0.2714a0.058649999999999994 0.058649999999999994 0 0 0 0.05635 -0.027599999999999996c0.0368 -0.04714999999999999 0.22194999999999998 -0.31625 0.41054999999999997 -0.5933999999999999 0.035649999999999994 0.207 0.04714999999999999 0.5841999999999999 -0.006899999999999999 0.6831zm-4.572399999999999 -2.45985a0.15755 0.15755 0 1 0 -0.15525 -0.15869999999999998 0.15869999999999998 0.15869999999999998 0 0 0 0.15525 0.15869999999999998z"
                stroke-width="1"></path>
        </g>
    </g>
</svg>