<svg xmlns="http://www.w3.org/2000/svg" fill="none" viewBox="0 0 400 400"
    id="Contact-1--Streamline-New-York" height="400" width="400">
    <desc>Contact 1 Streamline Illustration: https://streamlinehq.com</desc>
    <g id="contact-1--communication-contact-1">
        <g id="color">
            <g id="group">
                <path id="vector" fill="#2196f3"
                    d="M269.83 53.3818c-151.864 0 -148.39 -0.116 -148.746 0.21 -0.322 0.428 -0.21 -2.856 -0.21 37.974 3.7338 2.5938 6.8688 5.9572 9.1942 9.8636 2.3256 3.9066 3.7876 8.2658 4.2878 12.7844 4.616 -10.78 6.4 -11.932 5.964 -14.284 -0.45 -2.472 -4.28 -3.216 -7.086 -6.144 -4.2 -4.374 -2.548 -8.132 0.046 -8.6 2.864 -0.514 6.092 4.042 10.112 4 1.3364 -0.1116 2.6194 -0.5748 3.7188 -1.3428 1.0996 -0.7678 1.9762 -1.8128 2.5412 -3.0292 1.0884 -2.2326 1.842 -4.6136 2.236 -7.066 0.572 -2.664 1.71 -7.972 4.152 -9.814 1.956 -1.476 5.042 0.056 5.066 3.522 0.016 2.4 -1.368 4.074 -1.326 8.174 0.092 -0.2 0.282 -0.4 0.4 -0.582 1.552 -2.6 1.974 -6.34 5.088 -7.55 2.862 -1.112 5.572 1.848 4.24 6.2 -0.7568 1.6474 -1.4164 3.3378 -1.976 5.062 -0.024 0.13 -0.012 0.47 -0.034 0.724 0.2 -0.222 -0.218 0.2 3.934 -3.952 0.3402 -0.4366 0.7742 -0.7914 1.27 -1.0378 0.4956 -0.2464 1.0404 -0.3784 1.594 -0.3862 0.6416 0.0742 1.2482 0.3316 1.7474 0.7418 0.499 0.41 0.8694 0.9552 1.0666 1.5702 0.98 3.19 -1.372 5.058 -3.54 11.2 -3.926 11.122 -5.452 27.246 -6.37 38.874 -0.3526 4.5546 -1.3568 9.0348 -2.982 13.304 1.9496 2.9248 3.4968 6.0986 4.6 9.436 0.2796 0.6334 0.4308 1.3158 0.4448 2.0078 0.0142 0.6922 -0.1092 1.3802 -0.3628 2.0242 -0.2446 0.526 -0.6572 0.9558 -1.1728 1.2216 -0.5156 0.2658 -1.105 0.3524 -1.6752 0.2464 -1.7588 -0.689 -3.3512 -1.7436 -4.672 -3.094 0.4488 0.8536 0.8288 1.7418 1.136 2.656 1.548 5.172 -3.65 8.382 -7.506 2.882 0.3996 0.75 0.62 1.5824 0.644 2.4318 0.024 0.8496 -0.1492 1.693 -0.506 2.4642 -0.3332 0.4424 -0.7584 0.8072 -1.2464 1.0694 -0.4878 0.262 -1.0268 0.4152 -1.5796 0.4486 -1.184 0.078 -2.816 -0.356 -5.284 -3.534 -7.108 4 -17.116 6.376 -24.748 3.888 0 50.1102 0.182 47.6142 -0.352 47.8502 -0.35 0.156 -0.706 0.302 -1.064 0.444v36.498c16.42 11.282 27.8 27.58 38.838 44.138 3.068 -11.178 9.506 -21.748 12.454 -32.238 0.656 -2.334 -1.584 -6.756 -1.472 -8.764 0.016 -0.968 0.3994 -1.894 1.0726 -2.59 0.6734 -0.698 1.586 -1.112 2.5534 -1.16 2.368 0.158 4.238 2.978 5.362 5.078 1.248 2.33 1.226 3.02 1.9 3.33 1.51 0.692 4.226 -2.226 5.8 -3.616 5.95 -5.242 6.062 -5.432 7.138 -6.078 3.2 -1.922 6.056 -0.024 5.8 2.468 -0.256 1.284 -0.9032 2.456 -1.854 3.354 -0.67 0.776 -1.83 2.158 -1.024 3.218 1.062 1.4 3.172 -2.046 6.538 -2.982 3.126 -0.87 5.504 0.898 5.588 3.234 0.174 4.712 -8.052 5.06 -8.146 7.366 -0.042 1.03 1.978 1.302 3.106 1.264 2.586 -0.086 5.432 -1.102 7.8 0.44 0.518 0.286 0.95 0.702 1.258 1.206 0.308 0.506 0.478 1.082 0.494 1.672 0.018 0.592 -0.12 1.176 -0.398 1.698s-0.688 0.96 -1.188 1.276c-2.418 1.66 -5.324 0.31 -7.97 0.866 -1.634 0.364 -3.084 1.298 -4.09 2.636 -1.0064 1.336 -1.5036 2.988 -1.402 4.658 0.072 1.494 0.2 2.976 0.2 4.474 -0.0176 7.886 -1.8662 15.658 -5.4 22.708H263.4v26.024h-40.18c2.822 2.924 5.46 6.02 7.9 9.268h38.704c0.186 -0.002 0.366 -0.078 0.496 -0.21 0.132 -0.132 0.208 -0.312 0.21 -0.498v-138.24c-0.582 1.868 -1.386 3.66 -2.4 5.334 -6.736 10.826 -26.02 13.112 -36.838 3.684 -5.11 -4.454 -8.51 -11.9 -9.942 -18.1482 -1.064 -4.648 -1.412 -9.672 -3.112 -14.042 -1.982 -5.098 -5.766 -7.15 -8.248 -11.506 -2.522 -4.422 -0.026 -7.63 2.612 -7.364 3.488 0.352 4.714 5.474 7.558 5.094 -0.166 -2.2 -1.966 -3.872 -2.83 -5.976 -1.094 -2.666 -0.546 -5.844 2.026 -6.428 0.812 -0.1234 1.644 -0.0228 2.402 0.2914 0.76 0.314 1.42 0.8294 1.908 1.4906 1.49 1.8 5.014 9.18 6.43 6.828 0.256 -0.5808 0.344 -1.2216 0.254 -1.85 -0.258 -2.7642 -0.056 -5.5522 0.6 -8.25 1.328 -3.47 5.292 -2.762 6.824 0.066 0.888 1.64 0.942 3.152 1.576 8.172 0.248 1.972 0.2 3.428 1.3 4 0.474 -12.6 3.088 -18.26 7.696 -23.88 -6.894 4.212 -14.45 7.456 -20.366 1.916 -0.988 -0.0398 -1.95 -0.3248 -2.8 -0.8294 -0.852 -0.5044 -1.562 -1.2126 -2.07 -2.0606 -0.51 -0.8478 -0.8 -1.809 -0.844 -2.7966 -0.044 -0.9878 0.158 -1.971 0.588 -2.8614 -0.794 -1.8074 -1.024 -3.8118 -0.66 -5.752 1.104 -4.306 6.164 -5.42 9.98 -5.636 5.15 -0.292 9.6 0.702 15.86 -0.102 7.786 -1 15.07 -3.984 22.488 -6.356v-65.686c-0.002 -0.1844 -0.076 -0.361 -0.204 -0.4928 -0.128 -0.1318 -0.304 -0.209 -0.488 -0.2152Z"
                    stroke-width="1"></path>
                <path id="vector_2" fill="#ffffff"
                    d="M146.512 74.4c-1.025 -0.717 -2.2004 -1.1896 -3.4364 -1.3818 -1.236 -0.192 -2.4994 -0.0984 -3.6936 0.2738 -1.2882 0.4446 -2.391 1.3066 -3.1334 2.4494 -0.7426 1.1428 -1.082 2.5008 -0.9646 3.8586 0.566 5.89 7.216 9.024 11 6.162 0.922 -0.6242 1.6806 -1.4606 2.2124 -2.439 0.5316 -0.9782 0.8208 -2.0698 0.8432 -3.183 0.0222 -1.1132 -0.2228 -2.2154 -0.715 -3.2142 -0.492 -0.999 -1.2164 -1.865 -2.1126 -2.5258Z"
                    stroke-width="1"></path>
                <path id="vector_3" fill="#ffffff"
                    d="M116.6 164.968c-6.3856 2.8208 -13.0446 4.9762 -19.872 6.432 -8.0248 1.3142 -16.2392 0.8672 -24.074 -1.31 -16.0388 6.3206 -31.2664 14.532 -45.36 24.46 -0.0912 0.0516 -0.1928 0.0822 -0.2974 0.0896 -0.1044 0.0074 -0.2094 -0.0086 -0.307 -0.047 -0.0974 -0.0382 -0.1852 -0.098 -0.2568 -0.1744 -0.0716 -0.0766 -0.1252 -0.1682 -0.1568 -0.2682v0.026c3.119 7.614 8.3794 14.16 15.144 18.846 13.082 9.292 27.264 10.92 43.284 9.95 10.03 -0.6 28.444 -3.292 37.23 -7.186 0.522 -0.232 0.352 2.34 0.352 -47.85 -2.039 -0.6858 -3.9576 -1.6874 -5.686 -2.968Z"
                    stroke-width="1"></path>
                <path id="vector_4" fill="#ffffff"
                    d="M140.638 156.4538c-3.226 -1.734 -5.822 0.172 -8.146 1.302 -6.564 3.2 -11.536 5.4 -15.898 7.212 1.3302 0.9752 2.766 1.7976 4.28 2.452 7.868 3.33 18.698 0.842 26.164 -3.362 -3.404 -4.19 -4.352 -6.504 -6.4 -7.604Z"
                    stroke-width="1"></path>
                <path id="vector_5" fill="#ffffff"
                    d="M177.104 80.4318c-0.1972 -0.615 -0.5676 -1.1602 -1.0666 -1.5702 -0.4992 -0.4102 -1.1058 -0.6676 -1.7474 -0.7418 -0.5536 0.0078 -1.0984 0.1398 -1.594 0.3862 -0.4958 0.2464 -0.9298 0.6012 -1.27 1.0378 -4.2 4.216 -3.738 3.728 -3.934 3.952 -0.02 -0.6458 0.1014 -1.288 0.356 -1.882 0.736 -2.098 2.376 -4.104 1.912 -7.148 -0.0328 -0.521 -0.1864 -1.0274 -0.4486 -1.4788 -0.2622 -0.4514 -0.6258 -0.8358 -1.0622 -1.1226 -0.4364 -0.2866 -0.9334 -0.468 -1.4518 -0.5296 -0.5184 -0.0614 -1.0442 -0.0016 -1.5354 0.175 -2.478 0.962 -3.314 3.648 -4.26 5.868 -0.3058 0.8052 -0.7168 1.5666 -1.222 2.264 -0.0588 -1.3258 0.091 -2.6526 0.444 -3.932 0.4696 -1.3716 0.7658 -2.7968 0.882 -4.242 -0.024 -3.448 -3.104 -5 -5.066 -3.522 -0.8932 0.7834 -1.5968 1.7592 -2.058 2.854 -2.172 4.43 -2.07 9.938 -4.33 14.022 -0.5636 1.2164 -1.4386 2.262 -2.5366 3.0308 -1.098 0.7688 -2.3798 1.2336 -3.7154 1.3472 -4.022 0.032 -7.244 -4.524 -10.112 -4 -2.6 0.466 -4.242 4.22 -0.046 8.6 3.956 4.128 9.288 3.702 6.188 9.754 -1.824 3.562 -2.85 5.5 -5.066 10.674 0.4494 3.6952 0.4386 7.4316 -0.032 11.124 6.03 0.7044 11.832 2.7236 16.9962 5.9154 5.1644 3.1918 9.5652 7.4782 12.8918 12.5566 4.702 -12.272 2.098 -21.358 6.898 -43.326 3.482 -15.98 7.322 -15.718 5.986 -20.066Z"
                    stroke-width="1"></path>
                <path id="vector_6" fill="#ffffff"
                    d="M120.874 91.5658c-23.57 -17.278 -56.916 -5.344 -75.986 17.662 -9.854 11.888 -17.834 32.724 -20.64 47.642 -2.084 11.082 -2.29 26.272 2 37.256l0.02 0.034c0.0316 0.1 0.0852 0.1916 0.1568 0.2682s0.1594 0.1362 0.2568 0.1744c0.0976 0.0384 0.2024 0.0544 0.307 0.0472 0.1046 -0.0074 0.2062 -0.038 0.2974 -0.0898 14.0974 -9.8878 29.2926 -18.1092 45.282 -24.5 -19.618 -6.24 -22.886 -26.86 -19.314 -47.306 0.042 -0.244 0.276 -0.498 0.76 -0.518 0.626 -0.028 -4.874 0 46.05 0 0.1086 0.0006 0.2156 0.0262 0.3128 0.0746 0.0972 0.0484 0.182 0.1184 0.248 0.2048 0.0658 0.0864 0.111 0.1868 0.132 0.2932 0.021 0.1066 0.0174 0.2166 -0.0108 0.3214 -0.6666 1.7588 -1.3754 3.4974 -2.126 5.216 6.2568 -1.7948 12.7168 -2.7846 19.224 -2.946 5.4826 -0.465 10.9938 -0.487 16.48 -0.066 1.676 -13.604 -2.078 -25.43 -13.45 -33.768Z"
                    stroke-width="1"></path>
                <path id="vector_7" fill="#ffffff"
                    d="M109.242 185.9998c0.844 -0.316 0.478 -1.684 -0.376 -1.364 -21.3216 7.9756 -41.6194 18.4582 -60.466 31.2262 -0.75 0.508 -0.044 1.734 0.714 1.222 18.742 -12.704 38.9258 -23.1388 60.128 -31.0842Z"
                    stroke-width="1"></path>
                <path id="vector_8" fill="#000000"
                    d="M93.58 230.532c-16.4088 -6.504 -34.6732 -6.546 -51.112 -0.118l-0.028 0.018c-0.8 0.25 -0.414 1.548 0.258 1.43H93.4c0.1652 0.002 0.3254 -0.056 0.4506 -0.164 0.125 -0.108 0.2064 -0.258 0.2286 -0.422 0.022 -0.164 -0.0164 -0.33 -0.1084 -0.466 -0.092 -0.138 -0.231 -0.236 -0.3908 -0.278Z"
                    stroke-width="1"></path>
                <path id="vector_9" fill="#ffffff"
                    d="M168.81 153.2458c-2.392 -6.9874 -6.5924 -13.2166 -12.1742 -18.053 -5.5816 -4.8366 -12.345 -8.1078 -19.6018 -9.481 -6.3656 -0.8132 -12.8018 -0.9164 -19.19 -0.308 -6.507 0.16 -12.967 1.1486 -19.224 2.942 0.752 -1.72 1.4606 -3.4586 2.126 -5.216 0.0282 -0.1048 0.0318 -0.2148 0.0108 -0.3214 -0.021 -0.1066 -0.0662 -0.2068 -0.132 -0.2932 -0.066 -0.0864 -0.1508 -0.1564 -0.248 -0.2048 -0.0972 -0.0486 -0.2042 -0.074 -0.3128 -0.0746H53.936c-0.1546 0.0008 -0.3046 0.0516 -0.4276 0.145 -0.123 0.0934 -0.2124 0.2244 -0.2544 0.373 -2 11.436 -2.064 25.862 4.068 35.776 6.094 9.854 16.624 13.164 28.102 13.55 10.546 0.356 17.47 -1.582 29.292 -6.33 4.49 -1.8 10.624 -4.51 17.776 -8 2.512 -1.222 4.928 -3.032 8.146 -1.302 3.544 1.904 7.116 11.442 11.684 11.138 0.5528 -0.0334 1.0918 -0.1866 1.5796 -0.4486 0.488 -0.2622 0.9132 -0.627 1.2464 -1.0694 0.3568 -0.7712 0.53 -1.6146 0.506 -2.4642 -0.024 -0.8494 -0.2444 -1.6818 -0.644 -2.4318 3.824 5.456 9.07 2.344 7.506 -2.882 -0.3072 -0.9142 -0.6872 -1.8024 -1.136 -2.656 1.3214 1.3488 2.91 2.4066 4.664 3.106 0.5702 0.106 1.1596 0.0194 1.6752 -0.2464 0.5156 -0.2658 0.9282 -0.6956 1.1728 -1.2216 0.2528 -0.6432 0.3758 -1.3302 0.3616 -2.0212 -0.014 -0.691 -0.1648 -1.3724 -0.4436 -2.0048ZM156 147.9998c-0.3828 -1.0376 -0.902 -2.0196 -1.544 -2.92 -0.526 -0.746 0.702 -1.452 1.222 -0.714 0.7044 1.0062 1.2714 2.1018 1.686 3.258 0.312 0.856 -1.056 1.222 -1.364 0.376Zm-6.512 5 -1.954 -3.226c-0.0878 -0.1616 -0.1092 -0.351 -0.0598 -0.5282 0.0496 -0.1772 0.166 -0.328 0.3248 -0.4208 0.1588 -0.0928 0.3474 -0.1202 0.526 -0.0764 0.1788 0.044 0.3332 0.1556 0.431 0.3114l1.954 3.226c0.0878 0.1616 0.1092 0.3512 0.0596 0.5282 -0.0494 0.1772 -0.1658 0.3282 -0.3246 0.421s-0.3476 0.12 -0.5262 0.0762c-0.1786 -0.0438 -0.3332 -0.1556 -0.4308 -0.3114Zm-79.786 10.86 -5 -3.874c-0.6 -0.462 0.12 -1.682 1 -1l5 3.874c0.598 0.464 -0.12 1.684 -1 1.002v-0.002Z"
                    stroke-width="1"></path>
                <path id="vector_10" fill="#ffffff"
                    d="M149.488 152.9998c0.0978 0.1558 0.2522 0.2676 0.4308 0.3114 0.1788 0.0438 0.3674 0.0166 0.5262 -0.0762 0.1588 -0.0928 0.2752 -0.2438 0.3248 -0.421 0.0494 -0.177 0.028 -0.3666 -0.0598 -0.5282l-1.954 -3.226c-0.0978 -0.1558 -0.2522 -0.2674 -0.4308 -0.3114 -0.1786 -0.0438 -0.3674 -0.0164 -0.5262 0.0764s-0.2752 0.2436 -0.3246 0.4208c-0.0496 0.1772 -0.0282 0.3666 0.0596 0.5282l1.954 3.226Z"
                    stroke-width="1"></path>
                <path id="vector_11" fill="#ffffff"
                    d="M156 148c0.308 0.848 1.676 0.482 1.364 -0.376 -0.4146 -1.1562 -0.9816 -2.252 -1.686 -3.258 -0.52 -0.738 -1.748 -0.032 -1.222 0.714 0.642 0.9004 1.1612 1.8824 1.544 2.92Z"
                    stroke-width="1"></path>
                <path id="vector_12" fill="#000000"
                    d="M149.882 60.072c-1.518 -1.47 -3.864 -0.09 -5.2 0.94 -1.5092 1.2372 -2.7812 2.7382 -3.754 4.43 -1.18 1.924 -2.358 3.856 -3.342 5.888 -0.0662 0.122 -0.0954 0.2608 -0.0844 0.3992 0.011 0.1384 0.0618 0.2706 0.1466 0.3806 0.0846 0.1102 0.1994 0.1932 0.3304 0.2394 0.131 0.0462 0.2724 0.0534 0.4074 0.0208 0.8818 -0.2192 1.7066 -0.6234 2.42 -1.186 0.944 -0.6 1.926 -1.138 2.86 -1.76 2.994 -2 8.78 -6.868 6.216 -9.352Z"
                    stroke-width="1"></path>
                <path id="vector_13" fill="#ffffff"
                    d="M162.926 92.426c-2.4346 -0.1828 -4.862 0.4398 -6.908 1.772 -1.598 -1.5608 -3.5978 -2.6476 -5.7768 -3.1396 -2.179 -0.4918 -4.4516 -0.3694 -6.5652 0.3536 -0.846 0.314 -0.48 1.682 0.376 1.364 1.935 -0.7016 4.0334 -0.8184 6.0342 -0.3358 2.0008 0.4826 3.8154 1.5432 5.2178 3.0498 0.0332 0.0874 0.0862 0.166 0.155 0.2294 0.069 0.0632 0.1516 0.1096 0.2416 0.1352 0.09 0.0256 0.1848 0.03 0.2766 0.0124 0.092 -0.0174 0.1786 -0.0562 0.2528 -0.113 1.9268 -1.4272 4.306 -2.1066 6.696 -1.912 0.908 0.07 0.902 -1.344 0 -1.416Z"
                    stroke-width="1"></path>
                <path id="vector_14" fill="#ffffff"
                    d="M55.816 119.136c0.897 -5.0958 2.167 -10.1186 3.8 -15.028 0.288 -0.866 -1.076 -1.238 -1.364 -0.376 -1.6332 4.9094 -2.9032 9.9322 -3.8 15.028 -0.156 0.89 1.208 1.272 1.364 0.376Z"
                    stroke-width="1"></path>
                <path id="vector_15" fill="#ffffff"
                    d="M102.582 118.856c1.8162 -4.0798 3.3194 -8.292 4.496 -12.6 0.044 -0.179 0.0166 -0.368 -0.0764 -0.527 -0.093 -0.159 -0.2444 -0.2754 -0.422 -0.3246 -0.1776 -0.0492 -0.3672 -0.0272 -0.5288 0.0612 -0.1618 0.0884 -0.2826 0.2362 -0.3368 0.4124 -1.1372 4.1914 -2.5928 8.29 -4.354 12.26 -0.36 0.828 0.852 1.548 1.222 0.718Z"
                    stroke-width="1"></path>
                <path id="vector_16" fill="#ffffff"
                    d="M65.7 158.988c-0.87 -0.674 -1.6 0.532 -1 1l5 3.874c0.872 0.676 1.6 -0.532 1 -1l-5 -3.874Z"
                    stroke-width="1"></path>
                <path id="vector_17" fill="#ffffff"
                    d="M254.49 81.488c-2.026 0 -58.53 -0.092 -60.974 0 -6.238 -3.8 -6.074 -3.788 -6.71 -3.8 -0.4702 0.0036 -0.922 0.184 -1.2654 0.5052 -0.3434 0.3212 -0.5536 0.7598 -0.5886 1.2288 -0.06 1.052 1.09 2.092 1.696 2.856l2.04 2.568V113.8c0.0026 0.1864 0.0778 0.3644 0.2096 0.4964 0.1318 0.1318 0.31 0.207 0.4964 0.2096h65.096c0.186 -0.0026 0.364 -0.0778 0.498 -0.2096 0.132 -0.1318 0.206 -0.3098 0.21 -0.4964V82.2c-0.002 -0.1876 -0.076 -0.3672 -0.208 -0.5004 -0.134 -0.133 -0.312 -0.209 -0.5 -0.2116Z"
                    stroke-width="1"></path>
                <path id="vector_18" fill="#2196f3"
                    d="M200.65 93.414h42.862c0.18 -0.0096 0.352 -0.0884 0.476 -0.2198 0.124 -0.1316 0.194 -0.306 0.194 -0.4872 0 -0.1812 -0.07 -0.3556 -0.194 -0.4872 -0.124 -0.1314 -0.296 -0.2102 -0.476 -0.2198h-42.862c-0.182 0.0096 -0.352 0.0884 -0.476 0.2198 -0.124 0.1316 -0.1944 0.306 -0.1944 0.4872 0 0.1812 0.0704 0.3556 0.1944 0.4872 0.124 0.1314 0.294 0.2102 0.476 0.2198Z"
                    stroke-width="1"></path>
                <path id="vector_19" fill="#2196f3"
                    d="M200.65 99.6h42.862c0.18 -0.0096 0.352 -0.0882 0.476 -0.2198s0.194 -0.306 0.194 -0.4872c0 -0.1812 -0.07 -0.3556 -0.194 -0.4872 -0.124 -0.1314 -0.296 -0.2102 -0.476 -0.2198h-42.862c-0.182 0.0096 -0.352 0.0884 -0.476 0.2198 -0.124 0.1316 -0.1944 0.306 -0.1944 0.4872 0 0.1812 0.0704 0.3556 0.1944 0.4872 0.124 0.1316 0.294 0.2102 0.476 0.2198Z"
                    stroke-width="1"></path>
                <path id="vector_20" fill="#2196f3"
                    d="M243.512 105.3618c0.188 0 0.368 -0.0746 0.5 -0.2074 0.134 -0.1328 0.208 -0.3128 0.208 -0.5006 0 -0.1878 -0.074 -0.3678 -0.208 -0.5006 -0.132 -0.1328 -0.312 -0.2074 -0.5 -0.2074h-42.862c-0.188 0 -0.368 0.0746 -0.5 0.2074 -0.134 0.1328 -0.208 0.3128 -0.208 0.5006 0 0.1878 0.074 0.3678 0.208 0.5006 0.132 0.1328 0.312 0.2074 0.5 0.2074h42.862Z"
                    stroke-width="1"></path>
                <path id="vector_21" fill="#ffffff"
                    d="M202.584 179.8198c-1.178 -0.516 -1.6 0.072 -7.46 3.638H134.154c-0.1868 0.0026 -0.3652 0.0782 -0.497 0.2104 -0.132 0.1322 -0.207 0.3108 -0.209 0.4976v31.6002c0.002 0.186 0.077 0.366 0.209 0.498 0.1318 0.132 0.3102 0.208 0.497 0.21h65.096c0.187 -0.002 0.3656 -0.078 0.4978 -0.21 0.1322 -0.132 0.2076 -0.312 0.2102 -0.498V186.8198c3.626 -4.57 3.488 -4.352 3.622 -4.706 0.154 -0.4374 0.136 -0.9168 -0.048 -1.3422 -0.186 -0.4254 -0.524 -0.7652 -0.948 -0.9518Z"
                    stroke-width="1"></path>
                <path id="vector_22" fill="#2196f3"
                    d="M188 193.97H145.132c-0.181 0.0096 -0.3514 0.0882 -0.4762 0.2198 -0.1248 0.1316 -0.1942 0.306 -0.1942 0.4872 0 0.1812 0.0694 0.3556 0.1942 0.4872 0.1248 0.1314 0.2952 0.2102 0.4762 0.2198H188c0.181 -0.0096 0.3514 -0.0884 0.476 -0.2198 0.1248 -0.1316 0.1944 -0.306 0.1944 -0.4872 0 -0.1812 -0.0696 -0.3556 -0.1944 -0.4872 -0.1246 -0.1316 -0.295 -0.2102 -0.476 -0.2198Z"
                    stroke-width="1"></path>
                <path id="vector_23" fill="#2196f3"
                    d="M188 200.158H145.132c-0.1878 0 -0.368 0.074 -0.5006 0.208 -0.1328 0.132 -0.2074 0.312 -0.2074 0.5s0.0746 0.368 0.2074 0.5c0.1326 0.134 0.3128 0.208 0.5006 0.208H188c0.1878 0 0.3678 -0.074 0.5006 -0.208 0.1328 -0.132 0.2074 -0.312 0.2074 -0.5s-0.0746 -0.368 -0.2074 -0.5c-0.1328 -0.134 -0.3128 -0.208 -0.5006 -0.208Z"
                    stroke-width="1"></path>
                <path id="vector_24" fill="#2196f3"
                    d="M188 205.918H145.132c-0.181 0.01 -0.3514 0.088 -0.4762 0.22 -0.1248 0.132 -0.1942 0.306 -0.1942 0.486 0 0.182 0.0694 0.356 0.1942 0.488 0.1248 0.132 0.2952 0.21 0.4762 0.22H188c0.181 -0.01 0.3514 -0.088 0.476 -0.22 0.1248 -0.132 0.1944 -0.306 0.1944 -0.488 0 -0.18 -0.0696 -0.354 -0.1944 -0.486 -0.1246 -0.132 -0.295 -0.21 -0.476 -0.22Z"
                    stroke-width="1"></path>
                <path id="vector_25" fill="#2196f3"
                    d="M121.582 48.4538h148.248c0.18 -0.0096 0.352 -0.0884 0.476 -0.2198 0.124 -0.1316 0.194 -0.306 0.194 -0.4872 0 -0.1812 -0.07 -0.3556 -0.194 -0.4872 -0.124 -0.1314 -0.296 -0.2102 -0.476 -0.2198H121.582c-0.181 0.0096 -0.3514 0.0884 -0.4762 0.2198 -0.1246 0.1316 -0.1942 0.306 -0.1942 0.4872 0 0.1812 0.0696 0.3556 0.1942 0.4872 0.1248 0.1314 0.2952 0.2102 0.4762 0.2198Z"
                    stroke-width="1"></path>
                <path id="vector_26" fill="#2196f3"
                    d="M121.582 37.5678c-0.1878 0 -0.3678 0.0746 -0.5006 0.2074 -0.1328 0.1328 -0.2074 0.3128 -0.2074 0.5006 0 0.1878 0.0746 0.368 0.2074 0.5008 0.1328 0.1326 0.3128 0.2072 0.5006 0.2072h148.248c0.188 0 0.368 -0.0746 0.5 -0.2072 0.134 -0.1328 0.208 -0.313 0.208 -0.5008 0 -0.1878 -0.074 -0.3678 -0.208 -0.5006 -0.132 -0.1328 -0.312 -0.2074 -0.5 -0.2074H121.582Z"
                    stroke-width="1"></path>
                <path id="vector_27" fill="#ffffff"
                    d="M263.4 336.418V310.4H193.84c-0.8062 1.618 -1.6946 3.194 -2.662 4.72 10.254 3.244 20.038 8.862 32.048 21.304l40.174 -0.006Z"
                    stroke-width="1"></path>
                <path id="vector_28" fill="#ffffff"
                    d="M258.2 323.546 244.134 316c-0.122 -0.068 -0.26 -0.098 -0.4 -0.086 -0.138 0.01 -0.272 0.06 -0.382 0.146 -0.11 0.084 -0.194 0.2 -0.24 0.332 -0.046 0.13 -0.052 0.272 -0.018 0.408 4.774 15.662 4.67 15.452 4.8 15.656 0.042 0.084 0.102 0.16 0.176 0.222 0.072 0.06 0.158 0.106 0.248 0.132 0.092 0.028 0.188 0.036 0.282 0.024 0.096 -0.012 0.186 -0.044 0.268 -0.092 0.214 -0.11 -0.634 0.588 9.48 -8.082 0.076 -0.078 0.132 -0.172 0.166 -0.274 0.036 -0.102 0.046 -0.212 0.032 -0.32 -0.016 -0.106 -0.054 -0.21 -0.114 -0.3 -0.06 -0.09 -0.138 -0.166 -0.232 -0.22Z"
                    stroke-width="1"></path>
                <path id="vector_29" fill="#000000"
                    d="M260.77 290.248H201.8c-0.188 0 -0.368 0.074 -0.5 0.208 -0.134 0.132 -0.208 0.312 -0.208 0.5s0.074 0.368 0.208 0.5c0.132 0.134 0.312 0.208 0.5 0.208h58.97c0.188 0 0.368 -0.074 0.5 -0.208 0.134 -0.132 0.208 -0.312 0.208 -0.5s-0.074 -0.368 -0.208 -0.5c-0.132 -0.134 -0.312 -0.208 -0.5 -0.208Z"
                    stroke-width="1"></path>
                <path id="vector_30" fill="#000000"
                    d="M202.458 281.78h58.312c0.18 -0.01 0.352 -0.088 0.476 -0.22s0.194 -0.306 0.194 -0.488c0 -0.18 -0.07 -0.354 -0.194 -0.486s-0.296 -0.21 -0.476 -0.22h-58.312c-0.182 0.01 -0.352 0.088 -0.476 0.22s-0.194 0.306 -0.194 0.486c0 0.182 0.07 0.356 0.194 0.488s0.294 0.21 0.476 0.22Z"
                    stroke-width="1"></path>
                <path id="vector_31" fill="#000000"
                    d="M229.474 270.91h31.296c0.188 0 0.368 -0.074 0.5 -0.208 0.134 -0.132 0.208 -0.312 0.208 -0.5s-0.074 -0.368 -0.208 -0.5c-0.132 -0.134 -0.312 -0.208 -0.5 -0.208h-31.296c-0.188 0 -0.368 0.074 -0.5 0.208 -0.134 0.132 -0.208 0.312 -0.208 0.5s0.074 0.368 0.208 0.5c0.132 0.134 0.312 0.208 0.5 0.208Z"
                    stroke-width="1"></path>
                <path id="vector_32" fill="#000000"
                    d="M208.06 301.45h-6.26c-0.18 0.01 -0.352 0.088 -0.476 0.22s-0.194 0.306 -0.194 0.486c0 0.182 0.07 0.356 0.194 0.488s0.296 0.21 0.476 0.22h6.26c0.182 -0.01 0.352 -0.088 0.476 -0.22s0.194 -0.306 0.194 -0.488c0 -0.18 -0.07 -0.354 -0.194 -0.486s-0.294 -0.21 -0.476 -0.22Z"
                    stroke-width="1"></path>
                <path id="vector_33" fill="#000000"
                    d="M219.92 301.45h-4.612c-0.182 0.01 -0.352 0.088 -0.476 0.22s-0.194 0.306 -0.194 0.486c0 0.182 0.07 0.356 0.194 0.488s0.294 0.21 0.476 0.22h4.612c0.18 -0.01 0.352 -0.088 0.476 -0.22s0.194 -0.306 0.194 -0.488c0 -0.18 -0.07 -0.354 -0.194 -0.486s-0.296 -0.21 -0.476 -0.22Z"
                    stroke-width="1"></path>
                <path id="vector_34" fill="#000000"
                    d="M231.45 301.12h-4.284c-0.188 0 -0.368 0.074 -0.5 0.208 -0.134 0.132 -0.208 0.312 -0.208 0.5s0.074 0.368 0.208 0.5c0.132 0.134 0.312 0.208 0.5 0.208h4.284c0.188 0 0.368 -0.074 0.5 -0.208 0.134 -0.132 0.208 -0.312 0.208 -0.5s-0.074 -0.368 -0.208 -0.5c-0.132 -0.134 -0.312 -0.208 -0.5 -0.208Z"
                    stroke-width="1"></path>
                <path id="vector_35" fill="#000000"
                    d="M302.444 323.028h-26.932c-0.182 0.01 -0.352 0.088 -0.476 0.22s-0.194 0.306 -0.194 0.486c0 0.182 0.07 0.356 0.194 0.488s0.294 0.21 0.476 0.22h26.932c0.18 -0.01 0.352 -0.088 0.476 -0.22s0.194 -0.306 0.194 -0.488c0 -0.18 -0.07 -0.354 -0.194 -0.486s-0.296 -0.21 -0.476 -0.22Z"
                    stroke-width="1"></path>
                <path id="vector_36" fill="#000000"
                    d="M275.156 317.688c-0.816 0.4 -0.1 1.626 0.714 1.222l11.884 -5.89c0.816 -0.4 0.1 -1.626 -0.714 -1.222l-11.884 5.89Z"
                    stroke-width="1"></path>
                <path id="vector_37" fill="#000000"
                    d="M287.04 335.382c0.816 0.4 1.536 -0.828 0.714 -1.222l-11.884 -5.682c-0.818 -0.39 -1.536 0.828 -0.714 1.222l11.884 5.682Z"
                    stroke-width="1"></path>
                <path id="vector_38" fill="#000000"
                    d="M107.918 47.062c0.734 0.54 1.44 -0.688 0.714 -1.222l-9.958 -7.308c-0.734 -0.54 -1.442 0.688 -0.714 1.222l9.958 7.308Z"
                    stroke-width="1"></path>
                <path id="vector_39" fill="#000000"
                    d="m175.45 21.8338 -0.314 -11.13396c-0.026 -0.908 -1.442 -0.912 -1.416 0l0.316 11.13396c0.0096 0.181 0.0882 0.3514 0.2198 0.4762 0.1316 0.1246 0.3058 0.1942 0.4872 0.1942 0.1812 0 0.3556 -0.0696 0.4872 -0.1942 0.1314 -0.1248 0.2102 -0.2952 0.2198 -0.4762Z"
                    stroke-width="1"></path>
                <path id="vector_40" fill="#000000"
                    d="m235.882 22.974 1.8 -12.08608c0.132 -0.89 -1.232 -1.274 -1.364 -0.376l-1.8 12.08608c-0.134 0.892 1.23 1.276 1.364 0.376Z"
                    stroke-width="1"></path>
                <path id="vector_41" fill="#000000"
                    d="m300.13 40.034 -12.44 6.27c-0.812 0.4 -0.096 1.632 0.714 1.222l12.44 -6.27c0.814 -0.41 0.098 -1.63 -0.714 -1.222Z"
                    stroke-width="1"></path>
                <path id="vector_42" fill="#000000"
                    d="M289.932 104.832c-0.906 -0.09 -0.9 1.324 0 1.414l12.512 1.25c0.904 0.09 0.898 -1.326 0 -1.414l-12.512 -1.25Z"
                    stroke-width="1"></path>
                <path id="vector_43" fill="#000000"
                    d="M295.358 274.352c0.178 0.042 0.366 0.012 0.522 -0.08 0.158 -0.094 0.272 -0.246 0.322 -0.422 0.048 -0.176 0.026 -0.364 -0.06 -0.524 -0.088 -0.162 -0.234 -0.282 -0.408 -0.338l-10.386 -1.416c-0.178 -0.042 -0.366 -0.012 -0.522 0.08 -0.158 0.094 -0.272 0.244 -0.322 0.422 -0.048 0.176 -0.026 0.364 0.06 0.524 0.088 0.162 0.234 0.282 0.408 0.338l10.386 1.416Z"
                    stroke-width="1"></path>
                <path id="vector_44" fill="#000000"
                    d="m178.2 369 -2.39 8.416c-0.0416 0.178 -0.0126 0.366 0.081 0.522 0.0934 0.158 0.244 0.272 0.4204 0.322 0.1762 0.048 0.3646 0.026 0.5254 -0.06 0.1608 -0.088 0.2816 -0.234 0.3372 -0.408l2.39 -8.416c0.0416 -0.178 0.0126 -0.366 -0.081 -0.522 -0.0934 -0.158 -0.244 -0.272 -0.4204 -0.322 -0.1762 -0.048 -0.3646 -0.026 -0.5254 0.06 -0.1608 0.088 -0.2816 0.234 -0.3372 0.408Z"
                    stroke-width="1"></path>
                <path id="vector_45" fill="#000000"
                    d="m273.626 360.186 5.976 7.88c0.542 0.716 1.772 0.012 1.222 -0.714l-5.976 -7.88c-0.542 -0.716 -1.772 -0.012 -1.222 0.714Z"
                    stroke-width="1"></path>
                <path id="vector_46" fill="#000000"
                    d="M111.698 234.506c0.181 -0.01 0.3514 -0.088 0.4762 -0.22 0.1246 -0.132 0.1942 -0.306 0.1942 -0.488 0 -0.18 -0.0696 -0.354 -0.1942 -0.486 -0.1248 -0.132 -0.2952 -0.21 -0.4762 -0.22h-10.872c-0.181 0.01 -0.3514 0.088 -0.4762 0.22 -0.1246 0.132 -0.1942 0.306 -0.1942 0.486 0 0.182 0.0696 0.356 0.1942 0.488 0.1248 0.132 0.2952 0.21 0.4762 0.22h10.872Z"
                    stroke-width="1"></path>
                <path id="vector_47" fill="#000000"
                    d="M337.134 149.52c-1.19 -1.8472 -2.516 -3.604 -3.966 -5.256 -2.686 -3.774 -1.52 -8.378 -5.358 -11.4 -3.666 -2.894 -8.5 -2.35 -12.784 -3.422 -4.83 -1.21 -7.092 -4.906 -10.71 -7.74 -7.388 -5.786 -17.4 -5.948 -26.2 -4.014 -10.176 2.24 -19.67 7.116 -30.076 8.452 -6.468 0.832 -10.42 -0.2 -15.86 0.102 -3.816 0.216 -8.876 1.33 -9.98 5.636 -0.364 1.9402 -0.134 3.9446 0.66 5.752 0.354 -0.8224 0.862 -1.5692 1.498 -2.2 0.84 -0.9182 1.942 -1.5572 3.156 -1.8314 1.214 -0.2744 2.484 -0.1706 3.638 0.2972s2.136 1.2772 2.816 2.3198c0.68 1.0424 1.026 2.268 0.99 3.5124 -0.03 0.8812 -0.234 1.7476 -0.602 2.5494 -0.366 0.8018 -0.888 1.5232 -1.534 2.1222 -0.648 0.5992 -1.406 1.0642 -2.234 1.3684 -0.828 0.3042 -1.708 0.4416 -2.588 0.404 5.952 5.576 13.522 2.266 20.366 -1.916 9.214 -11.234 21.828 -15.562 35.948 -15.578 21.214 -0.026 39.928 12 46.874 33.6 6.512 -0.434 8.854 -7.062 5.946 -12.758Z"
                    stroke-width="1"></path>
                <path id="vector_48" fill="#ffffff"
                    d="M231.216 133.916c-1.142 -0.395 -2.37 -0.4734 -3.554 -0.2268 -1.182 0.2466 -2.278 0.8088 -3.166 1.6274 -0.89 0.8184 -1.542 1.8624 -1.886 3.0212 -0.344 1.1588 -0.366 2.389 -0.068 3.5602 0.376 1.2992 1.182 2.4324 2.286 3.2138 1.104 0.7816 2.442 1.1652 3.792 1.0882 1.672 -0.1024 3.248 -0.8226 4.418 -2.0208 1.172 -1.1982 1.856 -2.7888 1.92 -4.4632 0.052 -1.235 -0.28 -2.4558 -0.95 -3.4944 -0.67 -1.0386 -1.646 -1.844 -2.792 -2.3056Z"
                    stroke-width="1"></path>
                <path id="vector_49" fill="#ffffff"
                    d="M331.182 162.2738c-1.89 -6.3154 -5.098 -12.1574 -9.416 -17.1392 -4.316 -4.9818 -9.642 -8.9898 -15.624 -11.7588 -6.69 -2.982 -13.912 -4.5822 -21.234 -4.7042 -7.324 -0.122 -14.596 1.2366 -21.38 3.9942 -5.864 2.6786 -11.048 6.6434 -15.168 11.6 -4.65 5.67 -7.226 11.354 -7.696 23.88 0.702 0.2894 1.486 0.3058 2.2 0.046 1.44 -0.6352 2.786 -1.4664 4 -2.47 0.628 -0.485 1.362 -0.8156 2.142 -0.965 0.78 -0.1494 1.582 -0.1134 2.346 0.105 1.116 0.5768 1.96 1.5716 2.346 2.7676 0.386 1.1958 0.282 2.496 -0.286 3.6164 -1.246 2.872 -4.674 3.954 -7.412 4.754 -0.892 0.258 -0.668 0.578 -0.368 2.07l0.516 2.6h25.874c0.172 0.0164 0.334 0.0902 0.458 0.2096 0.126 0.1194 0.206 0.2774 0.23 0.4484 -0.024 -0.83 -0.044 -0.932 -0.062 -1.886 -0.098 -5.042 0.8 -11.082 4.38 -14.638 0.846 -0.932 1.966 -1.5708 3.2 -1.824 5.052 -0.172 8 1.528 6.968 6.476 -0.154 0.719 -0.372 1.423 -0.648 2.104 -0.046 0.218 0.074 -0.36 0.614 -0.36h45.612c0.168 0.0038 0.328 0.0674 0.452 0.1792 0.126 0.112 0.206 0.2648 0.228 0.4308 -0.504 -3.2338 -1.264 -6.4226 -2.272 -9.536Z"
                    stroke-width="1"></path>
                <path id="vector_50" fill="#ffffff"
                    d="M272.732 181.4118c-0.024 -1.104 -0.6 -0.746 -26.582 -0.746 -0.848 -4.284 -1.13 -4.39 -0.148 -4.674 1.528 -0.377 3.004 -0.9342 4.4 -1.66 1.268 -0.5618 2.292 -1.5574 2.89 -2.8078 0.598 -1.2502 0.732 -2.6728 0.374 -4.0122 -0.754 -2.6 -3.382 -3.98 -6.8 -1.8 -1.37 1.2428 -3.016 2.144 -4.8 2.63 -0.246 0.0592 -0.5 0.069 -0.748 0.0292 -0.25 -0.0398 -0.488 -0.1286 -0.704 -0.2612 -0.214 -0.1326 -0.4 -0.3062 -0.548 -0.5112 -0.146 -0.205 -0.252 -0.437 -0.308 -0.6828 -0.2 -0.8 -0.14 -0.764 -0.78 -5.842 -0.078 -1.7628 -0.48 -3.4962 -1.19 -5.112 -1.564 -2.89 -5.514 -3.486 -6.824 -0.066 -0.51 1.7076 -0.732 3.4876 -0.66 5.268 -0.064 2.8 0.312 4 -0.2 4.832 -1.416 2.35 -4.954 -5.044 -6.43 -6.828 -2.4 -2.888 -6.05 -2.274 -6.74 0.814 -0.958 4.292 3 6.57 3.234 9.8 -2 0.268 -3.512 -2.488 -4.77 -3.65 -2.2 -2.034 -4.292 -1.74 -5.476 -0.35 -0.646 0.9228 -0.986 2.0252 -0.972 3.1516 0.014 1.1264 0.382 2.22 1.05 3.1264 1.262 2.0116 2.738 3.8818 4.4 5.578 3.616 4.028 4.586 7.056 5.632 12.8 0.566 4.7656 1.748 9.4378 3.514 13.9002 3.842 9.258 10.058 15.456 20.048 16.968 9.844 1.492 20.904 -1.672 25.522 -11.016 3.7 -7.478 3.804 -19.8002 3.616 -28.8782Z"
                    stroke-width="1"></path>
                <path id="vector_51" fill="#ffffff"
                    d="m247.908 189.3618 -1.654 -8.218c-0.18 -0.892 -1.542 -0.514 -1.364 0.376l1.654 8.218c0.178 0.892 1.542 0.514 1.364 -0.376Z"
                    stroke-width="1"></path>
                <path id="vector_52" fill="#ffffff"
                    d="M366.24 217.412c-3.106 -7.938 -12.238 -11.95 -20.698 -12.642 -7.6 -0.624 -15.2 1.814 -22.492 4.2 5.702 -8.284 9.248 -17.8588 10.316 -27.8582 0.294 -3.0912 0.322 -6.202 0.082 -9.298 -0.02 -0.1666 -0.1 -0.3204 -0.226 -0.4326 -0.124 -0.1122 -0.286 -0.1752 -0.454 -0.1774h-45.612c-0.154 0.0066 -0.3 0.06 -0.422 0.153s-0.214 0.221 -0.26 0.367c-6 14.452 -12.486 32.9122 -13.244 49.1602 -0.566 5.278 0.882 10.574 4.056 14.83 2.854 3.34 6.714 5.664 11 6.622 6.08 1.096 12.252 1.62 18.43 1.566 9.2 -0.022 41.81 -0.242 50.698 -2.528 9.522 -2.458 12.546 -14.458 8.826 -23.962Z"
                    stroke-width="1"></path>
                <path id="vector_53" fill="#000000"
                    d="M376.366 205.686c-0.004 -0.154 -0.058 -0.302 -0.154 -0.422 -0.094 -0.12 -0.226 -0.206 -0.374 -0.246 -0.148 -0.04 -0.304 -0.032 -0.448 0.024 -0.142 0.056 -0.264 0.158 -0.344 0.288 -3.642 7.472 -5.468 15.7 -5.33 24.012 0.14 8.312 2.24 16.474 6.13 23.82 0.082 0.13 0.202 0.23 0.344 0.288 0.144 0.056 0.3 0.064 0.45 0.024 0.148 -0.04 0.278 -0.128 0.374 -0.248 0.094 -0.12 0.148 -0.268 0.152 -0.422l-0.8 -47.118Z"
                    stroke-width="1"></path>
                <path id="vector_54" fill="#ffffff"
                    d="M252.22 215.466h-5.27c-0.182 0.01 -0.352 0.088 -0.476 0.22s-0.194 0.306 -0.194 0.486c0 0.182 0.07 0.356 0.194 0.488s0.294 0.21 0.476 0.22h5.27c0.18 -0.01 0.352 -0.088 0.476 -0.22s0.194 -0.306 0.194 -0.488c0 -0.18 -0.07 -0.354 -0.194 -0.486s-0.296 -0.21 -0.476 -0.22Z"
                    stroke-width="1"></path>
                <path id="vector_55" fill="#ffffff"
                    d="M279.548 229.216c-0.472 -0.776 -1.696 -0.066 -1.22 0.714l2.568 4.222c0.472 0.776 1.696 0.066 1.222 -0.714l-2.57 -4.222Z"
                    stroke-width="1"></path>
                <path id="vector_56" fill="#ffffff"
                    d="M318.096 212.294c-3.41 2.016 -6.71 4.214 -9.884 6.582 -0.722 0.538 -0.016 1.768 0.714 1.222 3.174 -2.37 6.474 -4.566 9.884 -6.582 0.156 -0.098 0.268 -0.252 0.312 -0.432 0.044 -0.178 0.016 -0.366 -0.076 -0.526 -0.094 -0.158 -0.244 -0.274 -0.422 -0.324 -0.176 -0.05 -0.366 -0.028 -0.528 0.06Z"
                    stroke-width="1"></path>
                <path id="vector_57" fill="#000000"
                    d="M219.2 145.678c-4.824 3.4146 -9.75 6.678 -14.776 9.79 -0.772 0.48 -0.064 1.704 0.714 1.222 5.024 -3.1094 9.95 -6.3728 14.776 -9.79 0.738 -0.522 0.034 -1.75 -0.714 -1.222Z"
                    stroke-width="1"></path>
                <path id="vector_58" fill="#000000"
                    d="M205.424 145.618c-0.892 0.112 -0.904 1.528 0 1.416 3.476 -0.432 6.942 -0.9294 10.4 -1.492 0.896 -0.146 0.516 -1.51 -0.376 -1.364 -3.33 0.548 -6.672 1.028 -10.024 1.44Z"
                    stroke-width="1"></path>
                <path id="vector_59" fill="#000000"
                    d="m219 149.944 -3.936 6.434c-0.476 0.78 0.746 1.49 1.222 0.714l3.936 -6.434c0.48 -0.778 -0.744 -1.49 -1.222 -0.714Z"
                    stroke-width="1"></path>
                <path id="vector_60" fill="#ffffff"
                    d="M222.846 174.7398c-0.434 -0.8 -1.656 -0.088 -1.222 0.714l3.034 5.6c0.434 0.8 1.656 0.088 1.22 -0.714l-3.032 -5.6Z"
                    stroke-width="1"></path>
                <path id="vector_61" fill="#ffffff"
                    d="M232.362 170.902c-0.422 -0.8 -1.642 -0.092 -1.222 0.714l2.6 5c0.42 0.8 1.642 0.094 1.22 -0.714l-2.598 -5Z"
                    stroke-width="1"></path>
                <path id="vector_62" fill="#000000"
                    d="M263.4 365.296c-19.814 -1.528 -40.64 7.552 -51.34 23.528 -0.09 0.082 -0.156 0.186 -0.19 0.302 -0.034 0.116 -0.036 0.24 -0.004 0.356 0.03 0.118 0.094 0.224 0.182 0.308 0.088 0.084 0.198 0.14 0.316 0.166 0.47 0.148 -2.982 1.6 51.4 -23.342 0.694 -0.318 0.27 -1.27 -0.364 -1.318Z"
                    stroke-width="1"></path>
                <path id="vector_63" fill="#ffffff"
                    d="M83.7 280.2c0.0746 0.16 0.0876 0.34 0.0362 0.51 -0.0514 0.168 -0.1632 0.312 -0.3142 0.402 -2.2 1.576 -22.048 16 -29.692 21.756 -0.1586 0.092 -0.3468 0.12 -0.5248 0.076 -0.178 -0.044 -0.332 -0.156 -0.4292 -0.312 1.7142 3.406 3.6158 6.714 5.696 9.908 -1.998 3.754 -2.6212 8.088 -1.762 12.254 6.922 -13.4 19.826 -26.282 32.1 -35.238 -1.9712 -2.964 -3.681 -6.096 -5.11 -9.356Z"
                    stroke-width="1"></path>
                <path id="vector_64" fill="#4dabf5"
                    d="M194.672 306.656c-2.18 -1.636 -22.068 -16.306 -29.832 -22 -0.1496 -0.094 -0.2594 -0.24 -0.3092 -0.41 -0.0496 -0.168 -0.0358 -0.35 0.0392 -0.51 -1.9156 4.268 -3.5388 8.66 -4.858 13.148 -7.414 -11.128 -15.034 -22.228 -24.386 -31.838 -21.744 -22.344 -45.066 -27.662 -64.052 -22.686 -26.092 6.84 -31.52 30.93 -20.474 56.096 0.616 1.4 1.24 2.8 1.958 4.152 0.0972 0.16 0.2524 0.274 0.4328 0.322 0.1804 0.048 0.3722 0.022 0.5352 -0.068 7.644 -5.746 27.488 -20.18 29.692 -21.756 0.95 -0.68 -0.22 -0.93 -2.508 -8.614 7.366 0.752 13.236 5.07 18.56 10.048 -20.378 11.982 -35.8 28.77 -42.764 42.248 -8.446 16.348 -6.778 31.6 0 41.4l0.028 0.028c-0.068 -0.132 -0.0924 -0.284 -0.0698 -0.43 0.0226 -0.148 0.0912 -0.284 0.1958 -0.39 7.2212 -6.69 14.867 -12.906 22.89 -18.61 30.852 -21.656 75.466 -43.048 111.432 -31.672 1.771 -2.806 3.2824 -5.766 4.516 -8.846 -0.164 0.364 -0.634 0.684 -1.026 0.388Z"
                    stroke-width="1"></path>
                <path id="vector_65" fill="#000000"
                    d="M165.744 262c-1.8012 -0.87 -3.8176 -1.196 -5.8012 -0.936 -1.9836 0.26 -3.8482 1.094 -5.3648 2.398 -0.0752 0.076 -0.132 0.17 -0.166 0.272 -0.0342 0.102 -0.0448 0.21 -0.0312 0.318 0.0136 0.106 0.0512 0.208 0.11 0.298s0.1372 0.166 0.2292 0.222c1.3776 0.588 2.6956 1.306 3.936 2.144 1.5834 1.486 3.582 2.456 5.73 2.78 0.8922 0.062 1.781 -0.164 2.533 -0.648 0.7522 -0.486 1.3272 -1.2 1.639 -2.038 0.1432 -1.002 -0.0572 -2.022 -0.568 -2.896 -0.511 -0.874 -1.3026 -1.548 -2.246 -1.914Z"
                    stroke-width="1"></path>
                <path id="vector_66" fill="#ffffff"
                    d="M241.634 363.776c-5.082 -11.646 -12.516 -22.118 -21.834 -30.758 -8.942 -8.484 -17.158 -14.28 -28.618 -17.904 -35.954 -11.372 -80.572 10.01 -111.432 31.672 -8.0204 5.71 -15.6674 11.928 -22.894 18.614 -0.1046 0.106 -0.173 0.242 -0.1956 0.39 -0.0228 0.146 0.0016 0.298 0.0696 0.43l0.016 0.036c9.318 13.288 29.86 19.524 44.44 19.822 17.692 0.362 33.622 -7.87 48.828 -16.972 7.566 -4.53 15.538 -10.438 23.978 -10.778 8.386 -0.336 16.6 4.532 22.854 10.076 4.334 4.254 8.15 9.008 11.366 14.16 0.098 0.158 0.252 0.274 0.434 0.32 0.18 0.048 0.37 0.024 0.534 -0.066l32.128 -18.238c0.136 -0.08 0.24 -0.202 0.3 -0.346 0.058 -0.146 0.068 -0.306 0.026 -0.458Z"
                    stroke-width="1"></path>
                <path id="vector_67" fill="#ffffff"
                    d="M158.92 269.67c-1.754 -1.558 -4.68 -2.84 -6.952 -1.718 -0.9784 0.63 -1.7752 1.504 -2.3114 2.538 -0.536 1.032 -0.7926 2.188 -0.7446 3.35 -0.0814 1.22 0.2754 2.428 1.0062 3.408 0.731 0.978 1.7878 1.664 2.9798 1.934 5.432 0.898 9.784 -6.172 6.022 -9.512Z"
                    stroke-width="1"></path>
                <path id="vector_68" fill="#ffffff"
                    d="M212.342 269.2c-3 -1.952 -6.82 0.19 -9.656 -0.628 -1.56 -0.45 -1.782 -1.37 -0.018 -2.484 1.872 -1.182 7.046 -2.2 6.908 -5.958 -0.084 -2.332 -2.458 -4.104 -5.588 -3.234 -3.4 0.948 -5.476 4.382 -6.538 2.982 -0.8 -1.06 0.354 -2.442 1.024 -3.218 0.9508 -0.898 1.598 -2.07 1.854 -3.354 0.058 -0.662 -0.106 -1.322 -0.469 -1.878 -0.3628 -0.556 -0.9022 -0.974 -1.531 -1.186 -2.772 -0.982 -5.258 1.672 -7.052 3.254l-3.884 3.42c-1.488 1.312 -4.302 4.302 -5.8 3.616 -0.88 -0.4 -1.36 -3.26 -3.8 -6.226 -2.338 -2.848 -4.686 -2.624 -6.042 -1 -0.6118 0.722 -0.9798 1.618 -1.052 2.562 -0.108 1.926 2.112 6.484 1.472 8.764 -2.139 6.514 -4.6772 12.888 -7.6 19.09 -0.0736 0.16 -0.087 0.342 -0.0372 0.51 0.0496 0.17 0.1586 0.314 0.3072 0.41 7.764 5.702 27.652 20.372 29.832 22 0.216 0.162 0.694 0.246 1.038 -0.422 2.3216 -5.91 3.522 -12.2 3.54 -18.548 0 -1.498 -0.132 -2.98 -0.2 -4.474 -0.1016 -1.67 0.3956 -3.322 1.402 -4.658 1.006 -1.338 2.456 -2.272 4.09 -2.636 2.646 -0.556 5.552 0.8 7.97 -0.866 0.496 -0.316 0.902 -0.756 1.178 -1.276 0.276 -0.52 0.412 -1.102 0.394 -1.692 -0.016 -0.588 -0.186 -1.162 -0.492 -1.664 -0.304 -0.504 -0.736 -0.92 -1.25 -1.206Z"
                    stroke-width="1"></path>
                <path id="vector_69" fill="#000000"
                    d="M195.088 271.188c-2.4246 -0.654 -4.9932 -0.534 -7.346 0.344 -1.012 -3.19 -2.624 -6.78 -6.3 -7.32 -0.892 -0.13 -1.276 1.232 -0.376 1.364 3.492 0.514 4.708 4.262 5.572 7.178 0.0414 0.124 0.1158 0.234 0.215 0.32s0.2196 0.142 0.3484 0.164c0.129 0.024 0.2614 0.01 0.3838 -0.036 0.1222 -0.046 0.2296 -0.126 0.3108 -0.228 2.1666 -0.874 4.5582 -1.022 6.816 -0.422 0.178 0.042 0.3654 0.012 0.5226 -0.082 0.1572 -0.092 0.2722 -0.244 0.3208 -0.42 0.0486 -0.176 0.027 -0.364 -0.0602 -0.524 -0.087 -0.162 -0.233 -0.282 -0.4072 -0.338Z"
                    stroke-width="1"></path>
                <path id="vector_70" fill="#ffffff"
                    d="M179.158 318.152h-10.8c-0.181 0.01 -0.3514 0.088 -0.4762 0.22 -0.1246 0.132 -0.1942 0.306 -0.1942 0.486 0 0.182 0.0696 0.356 0.1942 0.488 0.1248 0.132 0.2952 0.21 0.4762 0.22h10.8c0.181 -0.01 0.3514 -0.088 0.4762 -0.22 0.1246 -0.132 0.1942 -0.306 0.1942 -0.488 0 -0.18 -0.0696 -0.354 -0.1942 -0.486 -0.1248 -0.132 -0.2952 -0.21 -0.4762 -0.22Z"
                    stroke-width="1"></path>
                <path id="vector_71" fill="#ffffff"
                    d="m61.74 251.154 -4.716 4.716c-0.1218 0.134 -0.1872 0.31 -0.1828 0.492 0.0046 0.182 0.0788 0.354 0.2072 0.484 0.1284 0.128 0.3014 0.202 0.4828 0.206 0.1816 0.006 0.358 -0.06 0.4928 -0.182l4.716 -4.716c0.1218 -0.134 0.1872 -0.312 0.1826 -0.492 -0.0046 -0.182 -0.0788 -0.356 -0.2072 -0.484 -0.1284 -0.128 -0.3012 -0.202 -0.4828 -0.206 -0.1816 -0.006 -0.358 0.06 -0.4926 0.182Z"
                    stroke-width="1"></path>
                <path id="vector_72" fill="#ffffff"
                    d="m158.2 302.154 -0.926 7.866c-0.106 0.904 1.31 0.896 1.414 0l0.926 -7.866c0.102 -0.902 -1.314 -0.894 -1.414 0Z"
                    stroke-width="1"></path>
                <path id="vector_73" fill="#ffffff"
                    d="M75.082 263.76c-0.62 -0.67 -1.618 0.332 -1 1l4.626 5c0.62 0.67 1.618 -0.332 1 -1l-4.626 -5Z"
                    stroke-width="1"></path>
            </g>
        </g>
        <g id="line">
            <g id="group_2">
                <path id="vector_74" fill="#000000"
                    d="M202.6 179.826c-1.176 -0.516 -1.6 0.072 -7.4578 3.638h-60.98c-0.187 0.0026 -0.3656 0.078 -0.4978 0.2102 -0.1322 0.1322 -0.2078 0.3108 -0.2102 0.4978v31.6c0.0024 0.186 0.078 0.366 0.2102 0.498 0.1322 0.132 0.3108 0.208 0.4978 0.21h65.094c0.1868 -0.002 0.3654 -0.078 0.4976 -0.21 0.1322 -0.132 0.2078 -0.312 0.2104 -0.498V186.826c3.6278 -4.57 3.4898 -4.352 3.6218 -4.706 0.156 -0.4364 0.14 -0.915 -0.042 -1.3404 -0.184 -0.4254 -0.52 -0.766 -0.944 -0.9536Zm-0.414 1.954c-1.504 2.2 -3.5998 4.158 -3.6258 4.882 0 0.038 -0.026 27.932 -0.016 28.4 -1.922 0 -63.014 -0.058 -63.664 -0.04V184.878c63.46 0 60.4 0.054 60.816 -0.096 6.4178 -3.902 6.0818 -3.8 6.3658 -3.652 0.056 0.03 0.104 0.0724 0.142 0.124 0.036 0.0514 0.062 0.1108 0.072 0.1732 0.012 0.0626 0.008 0.127 -0.01 0.188 -0.016 0.061 -0.048 0.1174 -0.09 0.1648h0.01Z"
                    stroke-width="1"></path>
                <path id="vector_75" fill="#000000"
                    d="M188.0002 193.976h-42.86c-0.181 0.0098 -0.3516 0.0884 -0.4762 0.22 -0.1248 0.1314 -0.1942 0.3058 -0.1942 0.487 0 0.1814 0.0694 0.3556 0.1942 0.4872 0.1246 0.1316 0.2952 0.2102 0.4762 0.2198h42.86c0.181 -0.0096 0.3514 -0.0882 0.476 -0.2198 0.1248 -0.1316 0.1942 -0.3058 0.1942 -0.4872 0 -0.1812 -0.0694 -0.3556 -0.1942 -0.487 -0.1246 -0.1316 -0.295 -0.2102 -0.476 -0.22Z"
                    stroke-width="1"></path>
                <path id="vector_76" fill="#000000"
                    d="M188 200.164H145.14c-0.1878 0 -0.3678 0.074 -0.5006 0.208 -0.1328 0.132 -0.2074 0.312 -0.2074 0.5s0.0746 0.368 0.2074 0.5c0.1328 0.134 0.3128 0.208 0.5006 0.208H188c0.1878 0 0.3678 -0.074 0.5006 -0.208 0.1328 -0.132 0.2074 -0.312 0.2074 -0.5s-0.0746 -0.368 -0.2074 -0.5c-0.1328 -0.134 -0.3128 -0.208 -0.5006 -0.208Z"
                    stroke-width="1"></path>
                <path id="vector_77" fill="#000000"
                    d="M188.0002 205.924h-42.86c-0.181 0.01 -0.3516 0.088 -0.4762 0.22 -0.1248 0.132 -0.1942 0.306 -0.1942 0.488 0 0.18 0.0694 0.354 0.1942 0.486 0.1246 0.132 0.2952 0.21 0.4762 0.22h42.86c0.181 -0.01 0.3514 -0.088 0.476 -0.22 0.1248 -0.132 0.1942 -0.306 0.1942 -0.486 0 -0.182 -0.0694 -0.356 -0.1942 -0.488 -0.1246 -0.132 -0.295 -0.21 -0.476 -0.22Z"
                    stroke-width="1"></path>
                <path id="vector_78" fill="#000000"
                    d="M146.286 85.76c1.4218 -1.119 2.4314 -2.6788 2.87 -4.434 1.47 -5.774 -4.874 -9.748 -9.766 -8.034 -1.2884 0.4442 -2.3914 1.3062 -3.1338 2.4492 -0.7426 1.1428 -1.0818 2.501 -0.9642 3.8588 0.564 5.888 7.216 9.022 10.994 6.16Zm-7.158 -10.82c3.256 -1.758 8.742 0.4 8.846 4.422 0.0068 1.7222 -0.646 3.3816 -1.824 4.638 -2.864 3.072 -8.178 0.832 -9.3 -3.614 -0.2896 -1.0316 -0.2222 -2.131 0.1912 -3.1194 0.4136 -0.9886 1.149 -1.8084 2.0868 -2.3266Z"
                    stroke-width="1"></path>
                <path id="vector_79" fill="#000000"
                    d="M93.4 231.888c0.1662 0 0.3268 -0.06 0.4522 -0.168 0.1254 -0.11 0.207 -0.26 0.23 -0.426 0.0228 -0.164 -0.0146 -0.33 -0.1054 -0.47 -0.0908 -0.14 -0.229 -0.24 -0.3888 -0.286 -16.409 -6.504 -34.6732 -6.546 -51.112 -0.118l-0.03 0.018c-0.82 0.254 -0.388 1.562 0.26 1.45H93.4Zm-4.112 -1.386c-0.308 0 -41.8 -0.108 -42.522 -0.12 13.8246 -4.492 28.723 -4.45 42.522 0.12Z"
                    stroke-width="1"></path>
                <path id="vector_80" fill="#000000"
                    d="M177.11 80.438c-0.1966 -0.615 -0.5664 -1.1604 -1.0652 -1.5704 -0.4988 -0.4102 -1.1052 -0.6676 -1.7468 -0.7416 -0.5536 0.0076 -1.0982 0.1396 -1.594 0.3862 -0.4956 0.2464 -0.9296 0.601 -1.27 1.0378 -4.184 4.19 -3.734 3.722 -3.934 3.952 -0.0198 -0.6464 0.1018 -1.2894 0.356 -1.884 0.736 -2.096 2.374 -4.104 1.912 -7.146 -0.033 -0.5212 -0.187 -1.0274 -0.4494 -1.479 -0.2624 -0.4514 -0.6262 -0.8356 -1.0626 -1.1224 -0.4364 -0.2866 -0.9336 -0.468 -1.4522 -0.5296 -0.5186 -0.0614 -1.0444 -0.0016 -1.5358 0.175 -2.476 0.962 -3.314 3.648 -4.258 5.868 -0.824 1.934 -0.648 2.582 -1.222 2.264 -0.574 -0.318 -0.046 -1.954 0.442 -3.934 0.4714 -1.3706 0.7684 -2.7952 0.884 -4.24 -0.024 -3.448 -3.106 -5 -5.066 -3.522 -0.8936 0.785 -1.5978 1.762 -2.06 2.858 -2.17 4.43 -2.068 9.938 -4.328 14.02 -0.5652 1.2158 -1.442 2.2606 -2.5414 3.028 -1.0994 0.7676 -2.3824 1.2304 -3.7186 1.342 -4.022 0.03 -7.246 -4.524 -10.112 -4 -2.6 0.466 -4.244 4.22 -0.048 8.6 1.3286 1.2558 2.8064 2.344 4.4 3.24 5.338 3.366 2.138 4.474 -3.308 17.028 -0.5772 -4.898 -2.2758 -9.597 -4.964 -13.732 -5.3052 -7.4644 -13.0212 -12.8722 -21.848 -15.312 -17.734 -5.272 -44.072 1.822 -62.634 24.218 -5.3666 6.8282 -9.6984 14.4094 -12.856 22.5 -6.91 16.484 -8.768 27.922 -9.142 38.368 -0.634 17.724 3.6 32.33 18.534 42.936 13.082 9.292 27.264 10.92 43.282 9.948 10.316 -0.624 28.574 -3.346 37.232 -7.184 0.522 -0.232 0.35 2.322 0.35 -47.868 7.634 2.492 17.474 0.166 24.748 -3.872 1.094 1.4 3.018 3.686 5.284 3.536 0.553 -0.034 1.0922 -0.1874 1.5802 -0.4494 0.4882 -0.262 0.9138 -0.6266 1.2478 -1.0686 0.3364 -0.6998 0.5134 -1.4654 0.5182 -2.2418 0.005 -0.7766 -0.1626 -1.5444 -0.4902 -2.2482 -0.38 -1.024 -0.08 0.056 1.138 1.136 3.542 3.144 7.612 0.284 6.2 -4.426 -0.854 -2.852 -2.086 -3.348 -0.018 -1.752 1.0122 0.9762 2.2202 1.726 3.544 2.2 0.5706 0.106 1.1604 0.0194 1.6762 -0.2464 0.516 -0.2656 0.929 -0.6954 1.1738 -1.2216 0.2528 -0.6444 0.3756 -1.3322 0.3614 -2.0242 -0.014 -0.692 -0.1646 -1.3744 -0.4434 -2.0078 -1.101 -3.3384 -2.6484 -6.5124 -4.6 -9.436 1.5628 -4.2898 2.569 -8.7624 2.994 -13.308 0.922 -11.68 2.45 -27.768 6.368 -38.874 2.15 -6.088 4.524 -8.01 3.542 -11.2Zm-152.234 81.7C26.334 148.8 33.65 128 42.41 114.914c13.974 -20.884 39.716 -33.096 60.4 -29.558 12.252 2.096 24.506 10.308 28.576 22.178 1.8476 5.7008 2.379 11.7462 1.554 17.682 -5.0274 -0.2704 -10.0674 -0.2036 -15.086 0.2 -6.507 0.1598 -12.967 1.1486 -19.224 2.942 0.752 -1.72 1.4608 -3.4588 2.126 -5.216 0.0278 -0.105 0.0312 -0.215 0.01 -0.3214 -0.0212 -0.1064 -0.0664 -0.2068 -0.1322 -0.2932 -0.0658 -0.0864 -0.1504 -0.1566 -0.2474 -0.2054 -0.097 -0.0488 -0.2038 -0.0748 -0.3124 -0.076H53.942c-0.1544 0.0018 -0.3042 0.0532 -0.4272 0.147 -0.1228 0.0936 -0.2122 0.2244 -0.2548 0.373 -3.336 19.112 -0.864 39.536 17.324 46.6 -15.264 6.1798 -29.7842 14.0582 -43.286 23.486 -3.56 -9.738 -3.536 -20.526 -2.422 -30.714Zm95.978 52.6c-11.01 4.53 -37.844 8.692 -54.934 6.368 -5.481 -0.744 -10.8172 -2.318 -15.826 -4.664 18.4628 -12.42 38.3158 -22.6374 59.154 -30.442 0.846 -0.316 0.48 -1.684 -0.376 -1.364 -21.2382 7.9448 -41.46 18.378 -60.242 31.084 -9.2908 -4.414 -16.6766 -12.034 -20.8 -21.458C51.2 178.048 72.272 169.974 72.662 170.096c4.1442 1.2516 8.4416 1.9246 12.77 2 11.558 0.39 19.304 -2.18 31.036 -7.056 1.3422 0.899 2.761 1.678 4.24 2.328 0.354 0.144 0.124 47.006 0.146 47.372v-0.002Zm5.6 -47.344c-2.9946 -0.3724 -5.8702 -1.401 -8.422 -3.012 9.756 -4.038 16.892 -8.022 18.422 -8.42 1.4128 -0.3654 2.9112 -0.1884 4.2 0.496 1.748 0.938 2.312 2.292 5.526 6.476 -5.9838 3.4296 -12.8586 4.9852 -19.736 4.466l0.01 -0.006Zm41 -13.768c0.4588 0.9416 0.5264 2.0266 0.188 3.018 -0.538 1.018 -1.448 0.786 -2.264 0.248 -1.8216 -1.224 -3.5418 -2.5924 -5.144 -4.092 -0.112 -0.1048 -0.255 -0.1708 -0.4076 -0.188 -0.1526 -0.0172 -0.3066 0.0152 -0.4392 0.0924 -0.1326 0.0772 -0.237 0.1952 -0.2974 0.3362 -0.0602 0.1412 -0.0736 0.298 -0.0378 0.4474 0.4924 1.5282 1.1084 3.0138 1.842 4.442 1.782 4.452 -1.616 6.366 -4.308 3.032 -0.8904 -1.4092 -1.972 -2.688 -3.214 -3.8 -0.556 -0.4 -1.13 0.26 -1.038 0.8 0.366 1.3824 0.8636 2.7266 1.486 4.014 0.428 1.148 0.884 3.034 -0.382 3.8 -1.75 1.066 -3.272 -0.314 -4.45 -1.6 -2 -2.184 -5.022 -6.772 -6.026 -7.75 -1.047 -1.0018 -2.3672 -1.6712 -3.7942 -1.9236 -1.427 -0.2524 -2.8966 -0.0764 -4.2238 0.5056 -4.634 2.036 -27.956 14.4 -42.496 15.586 -4.7206 0.3024 -9.46 0.1012 -14.138 -0.6 -20.846 -3.53 -26.454 -20.034 -24.478 -40.98 0.17 -1.8 0.414 -3.58 0.712 -5.358 0 0 44.2 0.018 44.482 0.028 -0.708 1.844 -1.45 3.674 -2.278 5.468 -0.232 0.504 0.162 1.268 0.8 1.04 5.8192 -1.9144 11.8784 -3.0018 18 -3.23 6.2904 -0.6244 12.6238 -0.6914 18.926 -0.2 7.458 0.9498 14.5006 3.9704 20.3294 8.7188 5.8288 4.7486 10.2106 11.0352 12.6486 18.1472l0.002 -0.002Zm6.704 -67.106c-6.958 14.552 -7.754 40.12 -8.656 46.8 -0.405 3.1026 -1.1624 6.149 -2.258 9.08 -3.3586 -4.7028 -7.6648 -8.6504 -12.6412 -11.5886 -4.9762 -2.9382 -10.5126 -4.802 -16.2528 -5.4714 0.32 -2.6982 0.4144 -5.4182 0.282 -8.132 -0.016 -0.278 -0.256 0.244 2.29 -5.352 3.684 -8.1 4.876 -8.868 4.862 -11.4 -0.024 -4.528 -6.4 -4.818 -9 -9.664 -0.66 -1.228 -1.248 -3.12 0.258 -4.016 2.498 -1.49 7.27 6.54 13.974 2.852 6.316 -3.474 5.54 -12.36 8.05 -17.8 0.512 -1.112 1.464 -3.356 3.018 -2.962 2.078 0.528 1.664 3.296 1.248 4.814 -0.444 1.622 -1.754 6.28 -0.38 7.276 0.149 0.1022 0.3168 0.1734 0.4938 0.2098 0.177 0.0362 0.3594 0.0366 0.5364 0.0012 0.1772 -0.0354 0.3454 -0.106 0.4948 -0.2074 0.1494 -0.1016 0.2768 -0.232 0.375 -0.3836 1.97 -2.484 2.386 -7.38 5.332 -7.856 1.416 -0.23 2.132 1.078 2.23 2.292 0.0012 1.5888 -0.4184 3.1498 -1.216 4.524 -0.612 1.342 -1.8 4.2 -0.772 5.254 0.2396 0.237 0.563 0.3698 0.9 0.3698 0.337 0 0.6604 -0.1328 0.9 -0.3698 1.326 -1.2 4.67 -5.082 5.66 -5.244 0.4084 -0.03 0.8152 0.0788 1.1538 0.309 0.3388 0.2302 0.5898 0.5682 0.7122 0.959 0.624 2.05 -0.742 3.928 -1.594 5.706Z"
                    stroke-width="1"></path>
                <path id="vector_81" fill="#000000"
                    d="M149.496 153c0.1002 0.1504 0.254 0.2566 0.43 0.2972 0.176 0.0406 0.361 0.0124 0.5168 -0.0788 0.1558 -0.0912 0.271 -0.2386 0.3218 -0.4118 0.0508 -0.1734 0.0334 -0.3596 -0.0486 -0.5206l-1.952 -3.226c-0.0976 -0.1558 -0.2522 -0.2674 -0.4308 -0.3112 -0.1786 -0.044 -0.3672 -0.0166 -0.526 0.0762 -0.1588 0.0928 -0.2754 0.2438 -0.3248 0.4208 -0.0494 0.1772 -0.028 0.3666 0.0596 0.5282l1.954 3.226Z"
                    stroke-width="1"></path>
                <path id="vector_82" fill="#000000"
                    d="M156 148c0.31 0.848 1.678 0.482 1.364 -0.376 -0.4134 -1.1564 -0.9798 -2.2522 -1.684 -3.258 -0.522 -0.738 -1.748 -0.032 -1.222 0.714 0.6414 0.9004 1.16 1.8824 1.542 2.92Z"
                    stroke-width="1"></path>
                <path id="vector_83" fill="#000000"
                    d="M138.4 72.3758c0.881 -0.2192 1.7052 -0.6236 2.418 -1.186 0.946 -0.6 1.928 -1.138 2.86 -1.76 3 -2 8.776 -6.87 6.212 -9.352 -1.516 -1.47 -3.862 -0.09 -5.2 0.938 -1.5088 1.2386 -2.7806 2.7402 -3.754 4.432 -1.178 1.924 -2.356 3.856 -3.34 5.888 -0.0666 0.1226 -0.0962 0.2616 -0.085 0.4006 0.011 0.139 0.0624 0.2716 0.1476 0.3818 0.0852 0.1104 0.2008 0.1934 0.3324 0.2392 0.1316 0.0458 0.2738 0.0522 0.409 0.0184Zm5.78 -8.966c3.624 -3.94 6.724 -2.956 3.548 0.694 -2.3028 2.4196 -4.9714 4.4626 -7.908 6.054 1.243 -2.3778 2.7018 -4.6368 4.358 -6.748h0.002Z"
                    stroke-width="1"></path>
                <path id="vector_84" fill="#000000"
                    d="M162.932 92.432c-2.4266 -0.1826 -4.8462 0.4356 -6.888 1.76 -1.5972 -1.5678 -3.6008 -2.6584 -5.7846 -3.1484 -2.184 -0.4902 -4.4612 -0.3606 -6.5754 0.3744 -0.846 0.314 -0.48 1.682 0.376 1.364 1.944 -0.6716 4.04 -0.7696 6.038 -0.2822 1.998 0.4872 3.8136 1.5392 5.23 3.0302 0.0348 0.084 0.0888 0.1588 0.1576 0.2184 0.0688 0.0594 0.1506 0.1022 0.2388 0.1244 0.0882 0.0224 0.1804 0.0238 0.2692 0.0042 0.0888 -0.0196 0.1718 -0.0596 0.2424 -0.117 1.9268 -1.4272 4.3062 -2.1066 6.696 -1.912 0.908 0.07 0.904 -1.344 0 -1.416Z"
                    stroke-width="1"></path>
                <path id="vector_85" fill="#000000"
                    d="M55.824 119.142c0.8968 -5.0956 2.1668 -10.1186 3.8 -15.028 0.288 -0.866 -1.078 -1.238 -1.364 -0.376 -1.634 4.9092 -2.9042 9.9322 -3.8 15.028 -0.156 0.89 1.206 1.272 1.364 0.376Z"
                    stroke-width="1"></path>
                <path id="vector_86" fill="#000000"
                    d="M102.588 118.8622c1.8182 -4.079 3.3214 -8.2914 4.496 -12.6 0.0416 -0.1782 0.0126 -0.3654 -0.081 -0.5226 -0.0934 -0.1572 -0.244 -0.2722 -0.4204 -0.3208 -0.1762 -0.0486 -0.3646 -0.0272 -0.5254 0.06s-0.2816 0.233 -0.3372 0.4074c-1.136 4.1912 -2.5916 8.2892 -4.354 12.258 -0.366 0.828 0.852 1.548 1.222 0.718Z"
                    stroke-width="1"></path>
                <path id="vector_87" fill="#000000"
                    d="M65.708 159c-0.87 -0.674 -1.6 0.532 -1 1l5 3.874c0.87 0.674 1.6 -0.532 1 -1l-5 -3.874Z"
                    stroke-width="1"></path>
                <path id="vector_88" fill="#000000"
                    d="M122.296 215.2c-0.0006 0.122 -0.0332 0.242 -0.0948 0.346 -0.0614 0.106 -0.1494 0.194 -0.2552 0.254 -0.352 0.156 -0.706 0.302 -1.064 0.442v36.5c0.476 0.328 0.944 0.664 1.414 1V215.2Z"
                    stroke-width="1"></path>
                <path id="vector_89" fill="#000000"
                    d="M269.13 344.276h-39.072c0.366 0.468 0.718 0.942 1.074 1.416 40.474 0 39.412 0.458 39.412 -0.708v-139.24c-0.382 1.218 -0.854 2.404 -1.414 3.55v134.982Z"
                    stroke-width="1"></path>
                <path id="vector_90" fill="#000000"
                    d="M122.296 54.8c4.688 0 146.32 0.088 146.834 0.062v65.38c0.47 -0.154 0.942 -0.31 1.414 -0.46V54.096c-0.002 -0.187 -0.078 -0.3656 -0.21 -0.4978 -0.132 -0.1322 -0.31 -0.2076 -0.498 -0.2102 -117.2 0 -142.2 -0.364 -147.524 0.084 -1.54 0.13 -1.43 0.328 -1.43 0.624v37.476c0.48 0.352 0.9514 0.7146 1.414 1.088V54.8Z"
                    stroke-width="1"></path>
                <path id="vector_91" fill="#000000"
                    d="M188.694 84.8538v28.946c0.0026 0.1868 0.0782 0.3652 0.2104 0.4972 0.1322 0.1318 0.3108 0.2068 0.4976 0.2088h65.094c0.186 -0.002 0.366 -0.077 0.498 -0.2088 0.132 -0.132 0.208 -0.3104 0.21 -0.4972v-31.6c-0.002 -0.1868 -0.078 -0.3654 -0.21 -0.4976 -0.132 -0.1322 -0.312 -0.2078 -0.498 -0.2104 -2.026 0 -58.528 -0.09 -60.972 0 -6.24 -3.8 -6.076 -3.786 -6.71 -3.8 -0.4704 0.0034 -0.9222 0.1836 -1.2658 0.5048 -0.3436 0.3214 -0.5536 0.7602 -0.5882 1.2292 -0.06 1.052 1.088 2.092 1.696 2.856l2.038 2.572Zm-2.094 -5.696c0.36 -0.176 1.03 0.4 1.314 0.582l5.05 3.072c0.244 0.134 60.616 0.142 60.818 0.138v30.142c-1.926 0 -63.03 -0.056 -63.68 -0.04 0 -30.354 0.068 -28.53 -0.152 -28.866 -0.282 -0.43 -0.012 -0.016 -2.944 -3.708 -0.234 -0.304 -1.028 -1.01 -0.406 -1.32Z"
                    stroke-width="1"></path>
                <path id="vector_92" fill="#000000"
                    d="M200.658 93.42h42.862c0.188 0 0.368 -0.0746 0.5 -0.2074 0.134 -0.1328 0.208 -0.313 0.208 -0.5006 0 -0.1878 -0.074 -0.368 -0.208 -0.5008 -0.132 -0.1328 -0.312 -0.2072 -0.5 -0.2072h-42.862c-0.188 0 -0.368 0.0744 -0.5 0.2072 -0.134 0.1328 -0.208 0.313 -0.208 0.5008 0 0.1876 0.074 0.3678 0.208 0.5006 0.132 0.1328 0.312 0.2074 0.5 0.2074Z"
                    stroke-width="1"></path>
                <path id="vector_93" fill="#000000"
                    d="M200.658 99.6h42.862c0.182 -0.0096 0.352 -0.0882 0.476 -0.2198s0.194 -0.306 0.194 -0.4872c0 -0.1812 -0.07 -0.3556 -0.194 -0.4872 -0.124 -0.1314 -0.294 -0.2102 -0.476 -0.2198h-42.862c-0.18 0.0096 -0.352 0.0884 -0.476 0.2198 -0.124 0.1316 -0.1944 0.306 -0.1944 0.4872 0 0.1812 0.0704 0.3556 0.1944 0.4872 0.124 0.1316 0.296 0.2102 0.476 0.2198Z"
                    stroke-width="1"></path>
                <path id="vector_94" fill="#000000"
                    d="M200.658 105.3658h42.862c0.182 -0.0096 0.352 -0.0882 0.476 -0.2198 0.124 -0.1314 0.194 -0.3058 0.194 -0.4872 0 -0.1812 -0.07 -0.3556 -0.194 -0.487 -0.124 -0.1316 -0.294 -0.2102 -0.476 -0.2198h-42.862c-0.18 0.0096 -0.352 0.0882 -0.476 0.2198 -0.124 0.1314 -0.1944 0.3058 -0.1944 0.487 0 0.1814 0.0704 0.3558 0.1944 0.4872 0.124 0.1316 0.296 0.2102 0.476 0.2198Z"
                    stroke-width="1"></path>
                <path id="vector_95" fill="#000000"
                    d="M121.5882 48.4598h148.2478c0.182 -0.0096 0.352 -0.0882 0.476 -0.2198 0.124 -0.1314 0.194 -0.3058 0.194 -0.4872 0 -0.1812 -0.07 -0.3556 -0.194 -0.487 -0.124 -0.1316 -0.294 -0.2102 -0.476 -0.22H121.5882c-0.1812 0.0098 -0.3516 0.0884 -0.4762 0.22 -0.1248 0.1314 -0.1942 0.3058 -0.1942 0.487 0 0.1814 0.0694 0.3558 0.1942 0.4872 0.1246 0.1316 0.295 0.2102 0.4762 0.2198Z"
                    stroke-width="1"></path>
                <path id="vector_96" fill="#000000"
                    d="M121.588 39h148.248c0.188 0 0.368 -0.0746 0.5 -0.2074 0.134 -0.1328 0.208 -0.3128 0.208 -0.5006 0 -0.1878 -0.074 -0.3678 -0.208 -0.5006 -0.132 -0.1328 -0.312 -0.2074 -0.5 -0.2074H121.588c-0.1878 0 -0.3678 0.0746 -0.5006 0.2074 -0.1328 0.1328 -0.2074 0.3128 -0.2074 0.5006 0 0.1878 0.0746 0.3678 0.2074 0.5006 0.1328 0.1328 0.3128 0.2074 0.5006 0.2074Z"
                    stroke-width="1"></path>
                <path id="vector_97" fill="#000000"
                    d="M263.412 337.132c0.188 -0.002 0.366 -0.078 0.498 -0.21s0.208 -0.312 0.21 -0.498V310.4c-0.002 -0.188 -0.078 -0.366 -0.21 -0.498s-0.31 -0.208 -0.498 -0.21H194.2002c-0.228 0.474 -0.452 0.948 -0.694 1.414h69.2098v24.612h-40.192c0.46 0.466 0.912 0.938 1.362 1.414h39.526Z"
                    stroke-width="1"></path>
                <path id="vector_98" fill="#000000"
                    d="M260.776 290.254H201.8c-0.188 0 -0.368 0.074 -0.5 0.208 -0.134 0.132 -0.208 0.312 -0.208 0.5s0.074 0.368 0.208 0.5c0.132 0.134 0.312 0.208 0.5 0.208h58.968c0.188 0 0.368 -0.072 0.502 -0.204s0.208 -0.312 0.21 -0.5c0.002 -0.188 -0.072 -0.368 -0.204 -0.502s-0.312 -0.21 -0.5 -0.21Z"
                    stroke-width="1"></path>
                <path id="vector_99" fill="#000000"
                    d="M202.466 281.786h58.31c0.182 -0.01 0.352 -0.088 0.476 -0.22s0.194 -0.306 0.194 -0.486c0 -0.182 -0.07 -0.356 -0.194 -0.488s-0.294 -0.21 -0.476 -0.22h-58.31c-0.18 0.01 -0.352 0.088 -0.476 0.22s-0.194 0.306 -0.194 0.488c0 0.18 0.07 0.354 0.194 0.486s0.296 0.21 0.476 0.22Z"
                    stroke-width="1"></path>
                <path id="vector_100" fill="#000000"
                    d="M229.48 270.914h31.296c0.182 -0.01 0.352 -0.088 0.476 -0.22s0.194 -0.306 0.194 -0.486c0 -0.182 -0.07 -0.356 -0.194 -0.488s-0.294 -0.21 -0.476 -0.22H229.48c-0.18 0.01 -0.352 0.088 -0.476 0.22s-0.194 0.306 -0.194 0.488c0 0.18 0.07 0.354 0.194 0.486s0.296 0.21 0.476 0.22Z"
                    stroke-width="1"></path>
                <path id="vector_101" fill="#000000"
                    d="M208.066 301.456H201.8c-0.18 0.01 -0.352 0.088 -0.476 0.22s-0.194 0.306 -0.194 0.488c0 0.18 0.07 0.354 0.194 0.486s0.296 0.21 0.476 0.22h6.258c0.182 -0.008 0.352 -0.086 0.478 -0.218 0.126 -0.13 0.196 -0.304 0.196 -0.486 0.002 -0.18 -0.066 -0.356 -0.19 -0.488s-0.296 -0.212 -0.476 -0.222Z"
                    stroke-width="1"></path>
                <path id="vector_102" fill="#000000"
                    d="M219.926 301.456h-4.612c-0.18 0.01 -0.352 0.088 -0.476 0.22s-0.194 0.306 -0.194 0.488c0 0.18 0.07 0.354 0.194 0.486s0.296 0.21 0.476 0.22h4.612c0.182 -0.01 0.352 -0.088 0.476 -0.22s0.194 -0.306 0.194 -0.486c0 -0.182 -0.07 -0.356 -0.194 -0.488s-0.294 -0.21 -0.476 -0.22Z"
                    stroke-width="1"></path>
                <path id="vector_103" fill="#000000"
                    d="M302.452 323.034H275.52c-0.182 0.01 -0.352 0.088 -0.476 0.22s-0.194 0.306 -0.194 0.486c0 0.182 0.07 0.356 0.194 0.488s0.294 0.21 0.476 0.22h26.932c0.182 -0.01 0.352 -0.088 0.476 -0.22s0.194 -0.306 0.194 -0.488c0 -0.18 -0.07 -0.354 -0.194 -0.486s-0.294 -0.21 -0.476 -0.22Z"
                    stroke-width="1"></path>
                <path id="vector_104" fill="#000000"
                    d="M275.162 317.694c-0.816 0.4 -0.1 1.626 0.714 1.222l11.884 -5.892c0.816 -0.4 0.1 -1.624 -0.714 -1.22l-11.884 5.89Z"
                    stroke-width="1"></path>
                <path id="vector_105" fill="#000000"
                    d="M287.046 335.388c0.818 0.4 1.536 -0.828 0.714 -1.222l-11.884 -5.682c-0.816 -0.39 -1.536 0.828 -0.714 1.222l11.884 5.682Z"
                    stroke-width="1"></path>
                <path id="vector_106" fill="#000000"
                    d="M107.924 47.068c0.736 0.538 1.442 -0.688 0.714 -1.222l-9.956 -7.308c-0.736 -0.54 -1.442 0.688 -0.714 1.222l9.956 7.308Z"
                    stroke-width="1"></path>
                <path id="vector_107" fill="#000000"
                    d="M174.042 21.84c0.026 0.908 1.442 0.912 1.416 0l-0.316 -11.13398c-0.0096 -0.181 -0.0882 -0.35142 -0.2198 -0.47614s-0.306 -0.19424 -0.4872 -0.19424c-0.1812 0 -0.3556 0.06952 -0.4872 0.19424 -0.1314 0.12472 -0.2102 0.29514 -0.2198 0.47614l0.314 11.13398Z"
                    stroke-width="1"></path>
                <path id="vector_108" fill="#000000"
                    d="m235.888 22.98 1.8 -12.08598c0.134 -0.89 -1.23 -1.274 -1.364 -0.376l-1.8 12.08598c-0.124 0.892 1.23 1.276 1.364 0.376Z"
                    stroke-width="1"></path>
                <path id="vector_109" fill="#000000"
                    d="m288.412 47.532 12.44 -6.27c0.812 -0.41 0.098 -1.63 -0.714 -1.222l-12.44 6.27c-0.814 0.41 -0.098 1.632 0.714 1.222Z"
                    stroke-width="1"></path>
                <path id="vector_110" fill="#000000"
                    d="M289.94 104.8382c-0.906 -0.09 -0.9 1.324 0 1.414l12.51 1.25c0.906 0.09 0.9 -1.326 0 -1.416l-12.51 -1.248Z"
                    stroke-width="1"></path>
                <path id="vector_111" fill="#000000"
                    d="M295.366 274.358c0.178 0.042 0.366 0.012 0.522 -0.08 0.158 -0.094 0.272 -0.244 0.322 -0.422 0.048 -0.176 0.026 -0.364 -0.06 -0.524 -0.088 -0.162 -0.234 -0.282 -0.408 -0.338l-10.386 -1.416c-0.178 -0.042 -0.366 -0.012 -0.522 0.08 -0.158 0.094 -0.272 0.246 -0.322 0.422 -0.048 0.176 -0.026 0.364 0.06 0.524 0.088 0.162 0.234 0.282 0.408 0.338l10.386 1.416Z"
                    stroke-width="1"></path>
                <path id="vector_112" fill="#000000"
                    d="m178.212 369 -2.388 8.416c-0.0414 0.178 -0.0124 0.366 0.081 0.522 0.0934 0.158 0.244 0.272 0.4204 0.322 0.1764 0.048 0.3646 0.026 0.5254 -0.06 0.1608 -0.088 0.2816 -0.234 0.3372 -0.408l2.4 -8.416c0.0498 -0.182 0.0252 -0.378 -0.0686 -0.542 -0.0938 -0.164 -0.2488 -0.284 -0.4314 -0.334 -0.1824 -0.05 -0.3772 -0.026 -0.5416 0.068 -0.1642 0.094 -0.2844 0.25 -0.3344 0.432Z"
                    stroke-width="1"></path>
                <path id="vector_113" fill="#000000"
                    d="m273.634 360.2 5.974 7.88c0.544 0.716 1.772 0.012 1.222 -0.714l-5.974 -7.88c-0.544 -0.724 -1.772 -0.02 -1.222 0.714Z"
                    stroke-width="1"></path>
                <path id="vector_114" fill="#000000"
                    d="M111.706 234.512c0.1878 0 0.3678 -0.074 0.5006 -0.208 0.1328 -0.132 0.2074 -0.312 0.2074 -0.5s-0.0746 -0.368 -0.2074 -0.5c-0.1328 -0.134 -0.3128 -0.208 -0.5006 -0.208h-10.872c-0.1878 0 -0.3678 0.074 -0.5006 0.208 -0.1328 0.132 -0.2074 0.312 -0.2074 0.5s0.0746 0.368 0.2074 0.5c0.1328 0.134 0.3128 0.208 0.5006 0.208h10.872Z"
                    stroke-width="1"></path>
                <path id="vector_115" fill="#000000"
                    d="M247.84 332.352c0.04 0.114 0.108 0.216 0.196 0.296 0.09 0.082 0.196 0.14 0.314 0.172 0.116 0.03 0.238 0.032 0.356 0.004 0.116 -0.028 0.226 -0.084 0.316 -0.162l9.33 -8c0.076 -0.076 0.134 -0.17 0.168 -0.272 0.034 -0.102 0.046 -0.212 0.032 -0.318 -0.014 -0.108 -0.052 -0.21 -0.11 -0.3 -0.06 -0.09 -0.14 -0.166 -0.232 -0.222L244.142 316c-0.122 -0.068 -0.26 -0.098 -0.4 -0.086 -0.138 0.01 -0.272 0.06 -0.382 0.146 -0.11 0.084 -0.194 0.2 -0.24 0.332 -0.044 0.13 -0.052 0.272 -0.018 0.408l4.738 15.552Zm8.77 -8.052 -7.726 6.624 -3.924 -12.874 11.65 6.25Z"
                    stroke-width="1"></path>
                <path id="vector_116" fill="#000000"
                    d="M231.456 301.126h-4.282c-0.188 0 -0.368 0.074 -0.5 0.208 -0.134 0.132 -0.208 0.312 -0.208 0.5s0.074 0.368 0.208 0.5c0.132 0.134 0.312 0.208 0.5 0.208h4.282c0.188 0 0.368 -0.074 0.5 -0.208 0.134 -0.132 0.208 -0.312 0.208 -0.5s-0.074 -0.368 -0.208 -0.5c-0.132 -0.134 -0.312 -0.208 -0.5 -0.208Z"
                    stroke-width="1"></path>
                <path id="vector_117" fill="#000000"
                    d="M212.072 388.83c-0.09 0.082 -0.154 0.186 -0.188 0.302 -0.034 0.118 -0.036 0.24 -0.004 0.358 0.032 0.116 0.096 0.222 0.182 0.306 0.088 0.082 0.198 0.14 0.316 0.166 0.46 0.144 -1.4 0.868 51.4 -23.342 0.694 -0.32 0.27 -1.27 -0.358 -1.318 -19.55 -1.502 -40.51 7.348 -51.348 23.528Zm2.6 -1.24c9.66 -12.83 27.288 -21.5 45.81 -21.016l-45.81 21.016Z"
                    stroke-width="1"></path>
                <path id="vector_118" fill="#000000"
                    d="M165.75 262c-1.8012 -0.87 -3.8176 -1.196 -5.8014 -0.936 -1.9838 0.26 -3.8484 1.092 -5.3646 2.398 -0.0754 0.078 -0.1324 0.17 -0.1666 0.272 -0.0342 0.102 -0.0448 0.212 -0.031 0.318 0.0138 0.106 0.0518 0.21 0.111 0.3s0.138 0.164 0.2306 0.22c1.3774 0.586 2.695 1.304 3.934 2.144 1.5836 1.486 3.5822 2.456 5.73 2.78 0.8922 0.064 1.7808 -0.164 2.533 -0.648 0.752 -0.484 1.327 -1.2 1.639 -2.038 0.1438 -1.002 -0.0562 -2.022 -0.5672 -2.896 -0.511 -0.874 -1.303 -1.548 -2.2468 -1.914Zm-1.2 6.08c-1.951 -0.3 -3.7588 -1.204 -5.168 -2.586 -0.952 -0.658 -1.9606 -1.232 -3.014 -1.712 3.8 -2.8 10.538 -1.04 10.89 1.964 0.17 1.508 -1.43 2.318 -2.714 2.34l0.006 -0.006Z"
                    stroke-width="1"></path>
                <path id="vector_119" fill="#000000"
                    d="M151.9762 267.958c-0.979 0.63 -1.7762 1.504 -2.3122 2.538 -0.5362 1.032 -0.7926 2.188 -0.7438 3.35 -0.0816 1.218 0.275 2.426 1.0056 3.406 0.7304 0.98 1.7868 1.666 2.9784 1.934 5.432 0.9 9.786 -6.17 6.024 -9.51 -1.754 -1.558 -4.682 -2.84 -6.952 -1.718Zm1.958 9.89c-0.5066 -0.004 -1.0068 -0.112 -1.469 -0.32 -0.462 -0.206 -0.8756 -0.508 -1.2146 -0.884 -0.3388 -0.378 -0.5954 -0.82 -0.7532 -1.302 -0.1578 -0.48 -0.2134 -0.99 -0.1632 -1.494 -0.0222 -1.538 0.5512 -3.026 1.6 -4.152 1.47 -1.4 3.572 -0.552 5.076 0.346 0.4656 0.22 0.8768 0.54 1.2044 0.936 0.3274 0.398 0.5628 0.864 0.6896 1.362 0.0492 1.384 -0.4418 2.732 -1.3696 3.76 -0.9276 1.028 -2.2188 1.656 -3.6004 1.748Z"
                    stroke-width="1"></path>
                <path id="vector_120" fill="#000000"
                    d="M241.64 363.782c-6.254 -15 -17.2 -27.654 -30.064 -37.888 -6.088 -4.802 -13.001 -8.454 -20.4 -10.774 5.238 -8.192 8.0376 -17.704 8.072 -27.428 0 -3.764 -0.672 -5.41 0.416 -7.8 0.446 -0.996 1.118 -1.874 1.964 -2.562 0.848 -0.69 1.844 -1.17 2.91 -1.402 2.646 -0.556 5.552 0.8 7.97 -0.866 0.5 -0.314 0.91 -0.754 1.188 -1.276 0.278 -0.522 0.416 -1.106 0.398 -1.698 -0.016 -0.59 -0.186 -1.166 -0.494 -1.672 -0.308 -0.504 -0.74 -0.92 -1.258 -1.206 -3 -1.952 -6.822 0.19 -9.658 -0.628 -1.556 -0.45 -1.782 -1.368 -0.016 -2.484 1.866 -1.178 7.046 -2.2 6.908 -5.958 -0.086 -2.332 -2.46 -4.104 -5.6 -3.234 -3.414 0.95 -5.472 4.386 -6.536 2.982 -0.8 -1.06 0.352 -2.442 1.022 -3.218 0.9522 -0.898 1.6 -2.07 1.856 -3.354 0.058 -0.662 -0.108 -1.326 -0.4724 -1.882 -0.3648 -0.556 -0.9064 -0.972 -1.5376 -1.182 -2.766 -0.98 -5.246 1.664 -7.052 3.254l-3.882 3.42c-1.488 1.312 -4.304 4.302 -5.8 3.616 -0.88 -0.4 -1.36 -3.26 -3.8 -6.226 -2.34 -2.85 -4.686 -2.622 -6.04 -1 -0.613 0.72 -0.9814 1.618 -1.0518 2.562 -0.108 1.942 2.096 6.438 1.472 8.764 -3.17 10.8 -9.5002 21.468 -12.4542 32.238 -7.414 -11.128 -15.034 -22.228 -24.386 -31.838 -21.714 -22.34 -45.044 -27.662 -64.032 -22.684 -10.82 2.836 -19.3558 8.904 -23.5418 19.474 -6.546 16.528 1.1418 35.854 10.7378 50.708 -1.996 3.754 -2.619 8.088 -1.762 12.254 -3.347 6.222 -5.2894 13.1 -5.69 20.154 -0.856 20.096 12.026 32.176 31.6 38.042 25.678 7.692 44.03 0.102 67.4002 -13.882 7.5618 -4.526 15.5378 -10.44 23.9778 -10.778 8.388 -0.338 16.6 4.532 22.854 10.076 4.334 4.256 8.15 9.008 11.368 14.16 0.098 0.158 0.254 0.272 0.434 0.32 0.18 0.046 0.372 0.022 0.534 -0.068l32.128 -18.236c0.132 -0.08 0.236 -0.202 0.294 -0.346 0.056 -0.146 0.066 -0.304 0.024 -0.454ZM173.538 265.02c0.874 -3.254 -1.8 -7.696 -1.386 -9.378 0.512 -2.086 2.04 -2.76 3.672 -1.364 1.6176 1.772 2.9046 3.818 3.8 6.044 0.832 1.774 2.6 2.418 5.048 0.77 2.4008 -1.87 4.7046 -3.862 6.902 -5.968 1.8 -1.588 4.786 -4.848 6.8 -3.272 1.218 0.952 0.2 2.528 -0.54 3.4 -0.9072 0.86 -1.5816 1.938 -1.96 3.13 -0.1408 0.556 -0.1038 1.142 0.1062 1.678 0.2098 0.534 0.582 0.988 1.0638 1.3 1.284 0.738 2.49 -0.134 3.516 -0.878 1.736 -1.256 4.4 -3.4 6.624 -1.972 0.24 0.15 0.448 0.35 0.608 0.584 0.16 0.234 0.27 0.498 0.324 0.776 0.054 0.28 0.05 0.566 -0.012 0.842 -0.062 0.278 -0.18 0.538 -0.348 0.768 -1.34 2.066 -4.4 2.2 -6.46 3.866 -2.226 1.8 -1.514 4.466 2.264 4.8 2.494 0.226 5.364 -1 7.6 0.012 2.366 1.074 2.016 3.862 -1.04 4.314 -1.538 0.228 -3.104 -0.186 -4.65 -0.098 -2.228 0.166 -4.298 1.206 -5.7644 2.89 -1.4656 1.686 -2.2072 3.882 -2.0636 6.11 0.6606 7.312 -0.348 14.678 -2.95 21.542 -7.49 -5.614 -26.614 -19.638 -28.626 -21.116 2.8696 -6.102 5.3648 -12.374 7.472 -18.78Zm-113.64 47.832c0.508 -0.906 -0.884 -1.166 -5.63 -10.382 7.47 -5.61 26.5022 -19.454 28.4762 -20.868 1.4126 3.05 3.0602 5.986 4.9278 8.782 -11.226 8.38 -23 20.19 -29.838 32.336 -0.3344 -3.422 0.3858 -6.866 2.064 -9.868Zm21.022 -40.354c7.344 0.75 13.2002 5.028 18.5602 10.048 -3.668 2.158 -7.2228 4.492 -10.664 7 -3.488 -5.246 -6.151 -10.996 -7.8962 -17.048Zm-24.152 55.334c6.298 -13.66 22.142 -31.8 44.318 -44.6 0.1052 -0.064 0.1922 -0.154 0.2526 -0.26 0.0604 -0.108 0.092 -0.228 0.092 -0.352 0 -0.122 -0.0316 -0.242 -0.092 -0.35 -0.0604 -0.106 -0.1474 -0.196 -0.2526 -0.26 -1.16 -0.648 -9.58 -10.4 -21.142 -11.014 -0.1086 0 -0.2156 0.026 -0.3128 0.076 -0.0972 0.048 -0.182 0.118 -0.2478 0.204 -0.0658 0.088 -0.111 0.188 -0.132 0.294 -0.021 0.106 -0.0174 0.216 0.0108 0.322 0.8086 2.846 1.7932 5.64 2.9478 8.364 -7.6 5.438 -26.6 19.448 -28.57 20.928 -5.218 -10.636 -8.84 -23.024 -5.874 -34.818 2.824 -11.228 10.306 -18.2 20.986 -21.778 17.91 -5.988 40.9722 -2.114 62.6002 18.514 10.99 10.478 19.624 23.2 28.034 35.838 0.0726 0.116 0.1772 0.21 0.3012 0.268 0.1242 0.06 0.2626 0.082 0.3988 0.064 0.136 -0.018 0.2642 -0.074 0.3692 -0.164 0.105 -0.088 0.1822 -0.204 0.2226 -0.336 1.2596 -4.656 2.8882 -9.204 4.8702 -13.6 7.528 5.528 26.5998 19.6 28.5998 21.102 -1.1512 2.782 -2.532 5.464 -4.128 8.016 -8.142 -1.258 -22.976 -5.8 -50.7998 2.468 -26.6482 7.914 -55.9522 25.43 -76.6822 43.6 -1.6732 1.466 -3.34 2.942 -5 4.428 -7.044 -11.008 -6.078 -25.444 -0.77 -36.954Zm152.274 53.442c-2.51 -3.882 -5.292 -7.584 -8.324 -11.074 -6.848 -7.362 -18.132 -14.464 -28.6 -13.124 -18.46 2.362 -43.8 34.292 -82.5 26.232 -11.908 -2.48 -24.162 -7.508 -31.294 -17.306 13.1622 -12.188 27.7516 -22.736 43.4502 -31.414 34.74 -19.524 77.7078 -32.298 108.7998 -7.694 12.57 10 23.246 22.116 29.486 36.772l-31.018 17.608Z"
                    stroke-width="1"></path>
                <path id="vector_121" fill="#000000"
                    d="M194.44 272.338c-2.4208 -0.65 -4.9834 -0.534 -7.336 0.332 -1.012 -3.18 -2.6518 -6.77 -6.3118 -7.308 -0.89 -0.13 -1.2762 1.232 -0.3762 1.364 3.492 0.514 4.7082 4.262 5.5722 7.178 0.041 0.124 0.115 0.234 0.214 0.32 0.099 0.086 0.2194 0.142 0.3482 0.166 0.1288 0.022 0.2612 0.01 0.3834 -0.038 0.1222 -0.046 0.2294 -0.126 0.3102 -0.228 2.169 -0.866 4.5588 -1.014 6.818 -0.422 0.179 0.044 0.368 0.016 0.527 -0.076 0.159 -0.094 0.2754 -0.244 0.3246 -0.422 0.0492 -0.178 0.0274 -0.368 -0.0612 -0.53 -0.0884 -0.16 -0.2362 -0.282 -0.4124 -0.336Z"
                    stroke-width="1"></path>
                <path id="vector_122" fill="#000000"
                    d="M179.166 318.156h-10.8c-0.1876 0 -0.3678 0.074 -0.5006 0.208 -0.1328 0.132 -0.2074 0.312 -0.2074 0.5s0.0746 0.368 0.2074 0.5c0.1328 0.134 0.313 0.208 0.5006 0.208h10.8c0.1878 0 0.368 -0.074 0.5008 -0.208 0.1326 -0.132 0.2072 -0.312 0.2072 -0.5s-0.0746 -0.368 -0.2072 -0.5c-0.1328 -0.134 -0.313 -0.208 -0.5008 -0.208Z"
                    stroke-width="1"></path>
                <path id="vector_123" fill="#000000"
                    d="m61.748 251.16 -4.716 4.716c-0.1218 0.134 -0.1872 0.312 -0.1826 0.492 0.0046 0.182 0.0786 0.354 0.207 0.484 0.1286 0.128 0.3014 0.202 0.483 0.206 0.1816 0.006 0.3578 -0.06 0.4926 -0.182l4.716 -4.716c0.1218 -0.134 0.1872 -0.312 0.1826 -0.492 -0.0046 -0.182 -0.0788 -0.356 -0.2072 -0.484 -0.1284 -0.128 -0.3012 -0.202 -0.4828 -0.206 -0.1816 -0.006 -0.358 0.06 -0.4926 0.182Z"
                    stroke-width="1"></path>
                <path id="vector_124" fill="#000000"
                    d="m158.2 302.16 -0.926 7.866c-0.106 0.902 1.31 0.896 1.416 0l0.926 -7.866c0.108 -0.902 -1.308 -0.896 -1.416 0Z"
                    stroke-width="1"></path>
                <path id="vector_125" fill="#000000"
                    d="M75.088 263.766c-0.62 -0.67 -1.618 0.332 -1 1l4.626 5c0.62 0.67 1.62 -0.332 1 -1l-4.626 -5Z"
                    stroke-width="1"></path>
                <path id="vector_126" fill="#000000"
                    d="M366.248 217.418c-3.106 -7.938 -12.236 -11.948 -20.7 -12.642 -7.6 -0.624 -15.18 1.8 -22.49 4.19 5.7 -8.284 9.246 -17.8574 10.314 -27.856 0.752 -6.3644 0.004 -12.8168 -2.186 -18.84 6.866 -0.6 8.726 -7.318 5.956 -12.744 -1.19 -1.847 -2.516 -3.6038 -3.966 -5.2558 -2.698 -3.8 -1.52 -8.3782 -5.36 -11.4002 -3.666 -2.892 -8.498 -2.348 -12.784 -3.42 -4.838 -1.212 -7.054 -4.878 -10.708 -7.74 -7.388 -5.788 -17.4 -5.948 -26.2 -4.014 -10.178 2.24 -19.672 7.116 -30.078 8.452 -6.372 0.82 -10.53 -0.2 -15.858 0.102 -3.818 0.216 -8.878 1.33 -9.98 5.636 -0.342 1.9302 -0.108 3.9186 0.674 5.7162 -0.436 0.8908 -0.642 1.8762 -0.6 2.8668 0.04 0.9908 0.328 1.9556 0.836 2.8072 0.508 0.8514 1.222 1.5628 2.074 2.0694 0.852 0.5068 1.818 0.7928 2.808 0.8324 4.612 4.264 10.376 3.34 16 0.556 4.676 -2.344 4.228 -2.34 3.886 -1.904 -5.448 6.912 -6.856 13.646 -7.22 23.312 -1.18 -0.618 -1.024 -1.828 -1.684 -7.062 -0.078 -1.7628 -0.482 -3.4958 -1.19 -5.112 -1.552 -2.866 -5.506 -3.51 -6.824 -0.066 -0.51 1.7074 -0.734 3.4876 -0.662 5.268 -0.062 2.8 0.312 4 -0.2 4.832 -1.416 2.35 -4.954 -5.044 -6.432 -6.828 -2.4 -2.888 -6.048 -2.2758 -6.738 0.8142 -0.958 4.29 2.988 6.5798 3.234 9.7998 -2 0.268 -3.514 -2.488 -4.772 -3.65 -2.2 -2.03 -4.286 -1.744 -5.474 -0.35 -0.644 0.9216 -0.984 2.0222 -0.972 3.147 0.014 1.1248 0.38 2.217 1.046 3.123 1.264 2.0112 2.738 3.8812 4.4 5.578 3.616 4.028 4.584 7.0562 5.632 12.8002 0.566 4.7648 1.748 9.4362 3.514 13.8978 3.832 9.238 10.038 15.454 20.046 16.97 8.882 1.346 19.546 -1.2 24.546 -9.232 4.902 -7.888 4.8 -22.026 4.52 -31.902 -0.148 -5.328 0.6 -11.626 4.364 -15.37 1.216 -1.076 2.756 -1.713 4.376 -1.8088 1.622 -0.0958 3.226 0.3554 4.56 1.2808 2.354 1.972 1.304 5.5142 0.222 8.1342 -5.976 14.474 -12.218 32.6338 -12.958 48.4698 -0.564 5.278 0.884 10.574 4.058 14.83 5.6 6.73 13.05 7.306 21.736 7.938 17.446 0.488 34.906 0.05 52.306 -1.314 5.548 -0.6 9.512 -1.14 13.032 -5.636 4.068 -5.17 4.286 -13.166 1.896 -19.276Zm-142.114 -75.24c-0.342 -0.8666 -0.45 -1.808 -0.312 -2.7294s0.514 -1.7906 1.094 -2.5202c0.58 -0.7294 1.34 -1.2938 2.206 -1.636 0.868 -0.3424 1.808 -0.4508 2.73 -0.3144 0.882 0.165 1.694 0.5878 2.334 1.2146 0.642 0.627 1.082 1.43 1.266 2.3074 0.14 0.7356 0.122 1.4924 -0.052 2.2206 -0.174 0.7282 -0.5 1.4114 -0.956 2.005 -0.456 0.5936 -1.032 1.084 -1.692 1.439 -0.658 0.3552 -1.386 0.567 -2.132 0.6214 -0.924 0.0746 -1.85 -0.1352 -2.652 -0.6014 -0.802 -0.466 -1.442 -1.1662 -1.834 -2.0066ZM230.026 146c1.378 -0.3934 2.596 -1.2106 3.482 -2.3358 0.886 -1.1252 1.396 -2.501 1.456 -3.9322 0.028 -1.3066 -0.362 -2.5884 -1.112 -3.658 -0.752 -1.0696 -1.824 -1.8712 -3.064 -2.288 -1.238 -0.4166 -2.578 -0.4266 -3.824 -0.0282 -1.244 0.3982 -2.33 1.1838 -3.096 2.2422 -3.088 -11.25 14.224 -7.8438 20.854 -8.1438 10.118 -0.456 19.434 -4.7802 29.024 -7.5682 25.172 -7.316 31.098 4.708 36.47 8.502 4.254 3 8.6 2.296 12.838 3.4 5.854 1.518 5.952 4.6 7.08 8.79 0.508 2.0788 1.546 3.9904 3.014 5.548 1.422 1.4506 2.546 3.1638 3.314 5.0442 1.076 3.298 0.356 7.5178 -3.24 8.8818 -0.8 0.2734 -1.636 0.4284 -2.482 0.46 -2.002 -6.0236 -5.218 -11.5728 -9.45 -16.305 -4.232 -4.7322 -9.388 -8.547 -15.15 -11.209 -6.688 -2.983 -13.912 -4.5836 -21.234 -4.7056 -7.324 -0.122 -14.596 1.237 -21.38 3.9956 -4.364 1.9978 -8.368 4.7066 -11.844 8.016 -6.282 3.564 -14.762 10.044 -21.656 5.294Zm40.946 49.98c-0.65 8.982 -2.668 17.296 -10.64 21.43 -3.99 1.992 -8.412 2.96 -12.87 2.82 -4.458 -0.14 -8.81 -1.384 -12.668 -3.62 -7.466 -4.724 -11.2 -14.066 -12.722 -22.7338 -0.464 -4.5602 -1.68 -9.012 -3.6 -13.1742 -1.182 -1.9118 -2.578 -3.6826 -4.162 -5.278 -2.09 -2.318 -5.33 -6.174 -3.372 -8.626 0.284 -0.3494 0.684 -0.5846 1.128 -0.662 0.444 -0.0776 0.9 0.0076 1.286 0.2402 0.896 0.5426 1.674 1.2586 2.288 2.1058 1.438 1.742 3.358 3.374 5.45 2.548 0.146 -0.0464 0.274 -0.1368 0.366 -0.2588 0.094 -0.1222 0.146 -0.27 0.152 -0.423 0.162 -3.366 -2.72 -5.3882 -3.276 -8.162 -0.722 -3.6 2.244 -4.6782 4.418 -1.9362 1.83 2.308 3.736 7.298 6.504 7.56 1.512 0.142 2.348 -1.16 2.502 -2.492 0.05 -0.7686 0.044 -1.5402 -0.02 -2.308 -0.03 -0.9572 -0.02 -1.9146 0.03 -2.872 -0.134 -1.5918 0.214 -3.1874 1 -4.578 0.954 -1.102 2.614 -0.468 3.4 0.498 1.332 1.62 1.128 3.6722 2.094 10.4842 0.486 3.434 3.304 3.9878 6.268 2.4878 1.39 -0.702 2.486 -1.868 3.886 -2.566 2.874 -1.432 4.6 1.0482 3.904 3.6622 -0.432 1.2798 -1.348 2.3386 -2.554 2.948 -2.824 1.646 -5.36 1.2 -5.758 3 -0.15 0.68 -0.212 -0.02 2.542 13.672 0.18 0.892 1.544 0.5138 1.364 -0.3762l-1.472 -7.282h24.89c0.07 4.614 -0.026 9.286 -0.358 13.892Zm14.848 -33.476c-1.184 -0.5724 -2.472 -0.8958 -3.784 -0.9502 -1.314 -0.0542 -2.624 0.1616 -3.85 0.6342 -2.062 1.2108 -3.698 3.032 -4.682 5.212 -1.842 4.167 -2.606 8.7302 -2.224 13.27h-25.122l-0.516 -2.5998c-0.308 -1.528 -0.516 -1.8142 0.366 -2.0702 2.8 -0.814 6.166 -1.876 7.412 -4.756 0.57 -1.1202 0.672 -2.4202 0.288 -3.6162 -0.386 -1.196 -1.23 -2.191 -2.346 -2.7678 -0.764 -0.2184 -1.568 -0.2544 -2.348 -0.105 -0.78 0.1494 -1.514 0.48 -2.142 0.965 -1.662 1.06 -2.8 2.3862 -4.8 2.6002 0.1 -4.0592 0.624 -8.0968 1.568 -12.0462 2.284 -9.182 9.888 -16.7318 18.226 -21.1998 10.618 -5.694 27.74 -6.902 41.052 -1.58 5.898 2.4042 11.266 5.9438 15.8 10.4178 7.136 7.4964 11.752 17.0358 13.2 27.284H288.2c1.03 -3.112 0.864 -7.05 -2.38 -8.692Zm72.89 76.912c-5.982 2.842 -41.56 3.016 -49.2 3.058 -5.206 0.164 -10.416 -0.07 -15.586 -0.7 -3.59 -0.156 -7.104 -1.094 -10.296 -2.748 -10.49 -5.768 -9.772 -15.726 -7.914 -27.296 2.414 -13.4636 6.418 -26.593 11.93 -39.112 0 0 42.82 0.052 44.468 0 0.642 13.387 -3.402 26.5792 -11.436 37.306 -0.068 0.122 -0.098 0.262 -0.088 0.4 0.01 0.14 0.06 0.272 0.146 0.384 0.084 0.11 0.2 0.194 0.332 0.24 0.132 0.044 0.274 0.05 0.41 0.016 5.288 -1.912 10.72 -3.404 16.244 -4.462 7.442 -1.326 15.108 0.228 21.446 4.346 2.046 1.328 3.75 3.122 4.972 5.234 1.222 2.112 1.928 4.482 2.062 6.918 0.844 6.816 -1.256 13.442 -7.49 16.416Z"
                    stroke-width="1"></path>
                <path id="vector_127" fill="#000000"
                    d="M375.822 253.11c0.074 0.138 0.19 0.25 0.332 0.316 0.144 0.066 0.304 0.082 0.456 0.048 0.154 -0.034 0.292 -0.118 0.392 -0.238 0.102 -0.12 0.16 -0.27 0.168 -0.426l-0.8 -47.118c-0.004 -0.154 -0.058 -0.302 -0.152 -0.422s-0.226 -0.208 -0.374 -0.248c-0.148 -0.04 -0.306 -0.03 -0.448 0.026 -0.142 0.056 -0.264 0.158 -0.344 0.288 -3.64 7.462 -5.468 15.678 -5.334 23.98 0.134 8.3 2.226 16.454 6.104 23.794Zm-0.814 -44.4c0 0.552 0.664 40.076 0.67 40.966 -2.886 -6.424 -4.432 -13.368 -4.55 -20.41 -0.116 -7.042 1.202 -14.034 3.872 -20.55l0.008 -0.006Z"
                    stroke-width="1"></path>
                <path id="vector_128" fill="#000000"
                    d="M252.228 215.472h-5.272c-0.18 0.01 -0.352 0.088 -0.476 0.22s-0.194 0.306 -0.194 0.486c0 0.182 0.07 0.356 0.194 0.488s0.296 0.21 0.476 0.22h5.272c0.182 -0.01 0.352 -0.088 0.476 -0.22s0.194 -0.306 0.194 -0.488c0 -0.18 -0.07 -0.354 -0.194 -0.486s-0.294 -0.21 -0.476 -0.22Z"
                    stroke-width="1"></path>
                <path id="vector_129" fill="#000000"
                    d="M318.104 212.3c-3.41 2.016 -6.71 4.212 -9.884 6.582 -0.722 0.538 -0.018 1.768 0.714 1.222 3.174 -2.37 6.474 -4.568 9.884 -6.582 0.156 -0.098 0.268 -0.252 0.312 -0.43 0.044 -0.18 0.016 -0.368 -0.076 -0.528 -0.094 -0.158 -0.244 -0.274 -0.422 -0.324 -0.176 -0.05 -0.366 -0.028 -0.528 0.06Z"
                    stroke-width="1"></path>
                <path id="vector_130" fill="#000000"
                    d="M219.2 145.684c-4.822 3.4148 -9.748 6.678 -14.776 9.79 -0.772 0.478 -0.062 1.704 0.714 1.222 5.026 -3.1092 9.952 -6.3726 14.776 -9.79 0.746 -0.522 0.04 -1.75 -0.714 -1.222Z"
                    stroke-width="1"></path>
                <path id="vector_131" fill="#000000"
                    d="M215.834 145.548c0.896 -0.146 0.516 -1.51 -0.376 -1.364 -3.334 0.5426 -6.676 1.0226 -10.028 1.44 -0.892 0.112 -0.902 1.528 0 1.416 3.478 -0.4266 6.946 -0.924 10.404 -1.492Z"
                    stroke-width="1"></path>
                <path id="vector_132" fill="#000000"
                    d="m219.012 149.95 -3.938 6.434c-0.476 0.778 0.748 1.49 1.222 0.714l3.936 -6.434c0.478 -0.78 -0.746 -1.49 -1.22 -0.714Z"
                    stroke-width="1"></path>
                <path id="vector_133" fill="#000000"
                    d="M222.854 174.746c-0.434 -0.8 -1.656 -0.088 -1.222 0.714l3.032 5.6c0.434 0.8 1.656 0.088 1.222 -0.714l-3.032 -5.6Z"
                    stroke-width="1"></path>
                <path id="vector_134" fill="#000000"
                    d="M232.368 170.9078c-0.42 -0.8 -1.642 -0.092 -1.22 0.714l2.6 5c0.422 0.8 1.642 0.094 1.222 -0.714l-2.602 -5Z"
                    stroke-width="1"></path>
                <path id="vector_135" fill="#000000"
                    d="M279.588 229.216c-0.474 -0.776 -1.698 -0.066 -1.222 0.714l2.568 4.222c0.474 0.776 1.698 0.066 1.222 -0.714l-2.568 -4.222Z"
                    stroke-width="1"></path>
            </g>
        </g>
    </g>
</svg>